<svg width="172" height="172" viewBox="0 0 172 172" fill="none" xmlns="http://www.w3.org/2000/svg">
<path d="M25.6386 133.11C23.1469 133.11 20.7734 131.191 20.7734 128.776V58.6076C20.7734 53.1094 25.7371 49.1099 31.4098 49.1099H140.433C146.105 49.1099 150.773 53.1094 150.773 58.6076V128.776C150.773 131.191 148.686 133.11 146.194 133.11H25.6386Z" fill="url(#paint0_linear_1817_160746)"/>
<path d="M24.5416 135.01C22.4524 135.01 20.6016 133.342 20.6016 131.47V57.9598C20.6016 52.8558 25.0841 49.0098 30.4016 49.0098H141.102C146.381 49.0098 150.602 52.8213 150.602 57.9598V131.47C150.602 133.417 148.961 135.01 146.952 135.01H24.5416Z" stroke="url(#paint1_linear_1817_160746)" stroke-width="2"/>
<path d="M146.96 143.87H24.54C19.83 143.87 16 140.83 16 137.1V131.48C16 130.85 16.51 130.33 17.15 130.33H154.35C154.98 130.33 155.5 130.84 155.5 131.48V137.1C155.5 140.83 151.67 143.87 146.97 143.87H146.96Z" fill="#191C29"/>
<path d="M146.96 143.87H24.54C19.83 143.87 16 140.83 16 137.1V131.48C16 130.85 16.51 130.33 17.15 130.33H154.35C154.98 130.33 155.5 130.84 155.5 131.48V137.1C155.5 140.83 151.67 143.87 146.97 143.87H146.96ZM18.3 132.62V137.1C18.3 139.53 21.16 141.58 24.55 141.58H146.97C150.35 141.58 153.21 139.53 153.21 137.1V132.62H18.29H18.3Z" fill="#949AB3"/>
<path d="M85.7406 140.7C83.7606 140.7 82.1406 139.08 82.1406 137.09C82.1406 135.1 83.7606 133.49 85.7406 133.49C87.7206 133.49 89.3506 135.11 89.3506 137.09C89.3506 139.07 87.7306 140.7 85.7406 140.7ZM85.7406 135.79C85.0206 135.79 84.4306 136.38 84.4306 137.1C84.4306 137.82 85.0206 138.41 85.7406 138.41C86.4606 138.41 87.0506 137.82 87.0506 137.1C87.0506 136.38 86.4606 135.79 85.7406 135.79Z" fill="#F2F2F2"/>
<path d="M85.8149 122.059C69.8484 115.09 59.5312 99.0117 59.5312 81.0996V69.9755L86.4289 59.6411L113.327 69.9755V81.0996C113.327 99.0117 103.009 115.09 87.043 122.059L86.43 122.327L85.8171 122.059H85.8149Z" fill="#949AB3"/>
<path d="M111.792 71.0288V81.0993C111.792 99.5974 100.811 114.376 86.4272 120.654C72.0433 114.376 61.0625 99.5963 61.0625 81.0993V71.0288L86.4272 61.2837L111.792 71.0288Z" fill="#1E2A4A"/>
<path d="M93.0618 84.0697V81.4034C93.0618 78.178 90.4375 75.5537 87.2121 75.5537H85.6554C82.43 75.5537 79.8057 78.178 79.8057 81.4034V84.0697C78.6617 84.2636 77.7891 85.2568 77.7891 86.4559V97.1878C77.7891 98.5258 78.8739 99.6106 80.2119 99.6106H92.6556C93.9936 99.6106 95.0784 98.5258 95.0784 97.1878V86.4559C95.0784 85.2568 94.2058 84.2636 93.0618 84.0697ZM87.4922 91.4943V94.6993C87.4922 95.2831 87.0182 95.7572 86.4343 95.7572C85.8504 95.7572 85.3764 95.2831 85.3764 94.6993V91.4943C84.6772 91.1173 84.2011 90.3783 84.2011 89.5272C84.2011 88.2937 85.2008 87.294 86.4343 87.294C87.6678 87.294 88.6675 88.2937 88.6675 89.5272C88.6675 90.3783 88.1913 91.1173 87.4922 91.4943ZM90.7564 84.033H82.1122V81.4034C82.1122 79.4492 83.7023 77.8591 85.6565 77.8591H87.2132C89.1674 77.8591 90.7574 79.4492 90.7574 81.4034V84.033H90.7564Z" fill="url(#paint2_linear_1817_160746)"/>
<defs>
<linearGradient id="paint0_linear_1817_160746" x1="26.5864" y1="53.6641" x2="147.835" y2="130.177" gradientUnits="userSpaceOnUse">
<stop stop-color="#264180"/>
<stop offset="1" stop-color="#191C29"/>
</linearGradient>
<linearGradient id="paint1_linear_1817_160746" x1="85.6016" y1="48.0098" x2="149.773" y2="134.11" gradientUnits="userSpaceOnUse">
<stop stop-color="#677393"/>
<stop offset="1" stop-color="#677393"/>
</linearGradient>
<linearGradient id="paint2_linear_1817_160746" x1="76" y1="74" x2="106.5" y2="108" gradientUnits="userSpaceOnUse">
<stop stop-color="#E5E9F3"/>
<stop offset="1" stop-color="#274280"/>
</linearGradient>
</defs>
</svg>
