<svg width="172" height="144" viewBox="0 0 172 144" fill="none" xmlns="http://www.w3.org/2000/svg">
<path d="M109.228 14.4371L109.201 14.3965L108.77 14.8257C106.438 17.1474 105.028 20.1442 104.696 23.3674C104.643 23.8486 104.623 24.3367 104.623 24.82C104.623 28.593 106.096 32.1397 108.759 34.8129C111.08 37.1449 114.077 38.5552 117.3 38.8872C117.3 38.8872 117.299 38.8871 117.299 38.8871L109.228 14.4371ZM109.228 14.4371C111.845 12.0389 115.212 10.72 118.783 10.72C126.58 10.72 132.913 17.0746 132.903 24.8607M109.228 14.4371L132.903 24.8607M132.903 24.8607C132.903 25.3332 132.882 25.821 132.83 26.2925M132.903 24.8607C132.903 24.8604 132.903 24.8602 132.903 24.86L132.83 26.2925M132.83 26.2925C132.622 28.356 131.958 30.3356 130.892 32.1169L130.892 32.1172C130.659 32.504 130.152 32.6308 129.766 32.3987L129.754 32.392L129.754 32.3918C129.501 32.2305 129.344 31.9445 129.363 31.6366C129.369 31.4749 129.433 31.3507 129.452 31.3129C129.454 31.3103 129.455 31.3081 129.456 31.3064L129.464 31.289L129.474 31.2723C130.415 29.7079 130.992 27.9495 131.185 26.1312C131.224 25.6989 131.253 25.2771 131.253 24.86C131.253 17.9757 125.666 12.37 118.773 12.36L132.83 26.2925ZM99.7098 29.4367L99.6472 29.1677L99.3861 29.0774L95.1328 27.6074V22.2527L99.3958 20.7827L99.6558 20.693L99.7193 20.4254C100.217 18.3284 101.046 16.3584 102.148 14.5837L102.293 14.3496L102.173 14.1016L100.2 10.0395L103.972 6.26778L108.023 8.24914L108.271 8.37031L108.505 8.22542C110.291 7.12294 112.261 6.2943 114.356 5.807L114.625 5.74442L114.715 5.48332L116.185 1.22998H121.54L123.01 5.49298L123.1 5.753L123.367 5.81649C125.464 6.31392 127.434 7.14293 129.209 8.24478L129.443 8.39017L129.691 8.26978L133.753 6.29758L137.525 10.0693L135.544 14.1203L135.422 14.368L135.567 14.6027C136.67 16.3881 137.499 18.3578 137.986 20.4532L138.048 20.7223L138.309 20.8126L142.563 22.2826V27.6373L138.3 29.1073L138.04 29.197L137.976 29.4646C137.479 31.5616 136.65 33.5316 135.548 35.3063L135.403 35.5404L135.523 35.7884L137.495 39.8505L133.723 43.6222L129.673 41.6408L129.425 41.5197L129.19 41.6646C127.405 42.767 125.435 43.5957 123.34 44.083L123.07 44.1456L122.98 44.4067L121.51 48.66H116.155L114.685 44.397L114.596 44.137L114.328 44.0735C112.231 43.576 110.261 42.7471 108.487 41.6452L108.252 41.4998L108.004 41.6202L103.942 43.5924L100.171 39.8207L102.152 35.7697L102.273 35.5219L102.128 35.2873C101.026 33.5019 100.197 31.5321 99.7098 29.4367ZM117.369 30.8043C117.607 30.8661 117.836 30.9061 118.061 30.9356L118.075 30.9496L118.253 30.9675C121.174 31.2618 123.976 29.3776 124.718 26.4321C125.535 23.1955 123.574 19.9038 120.346 19.0855C118.777 18.6825 117.151 18.9228 115.767 19.7504C114.374 20.5777 113.391 21.8878 112.998 23.4583C112.181 26.6946 114.142 29.9859 117.369 30.8043Z" fill="#26417F" stroke="#687493"/>
<path d="M155.025 51.6101L154.969 52.107C155.881 52.2095 156.801 52.0041 157.593 51.5289L159.14 50.6001H158.675C159.082 50.1137 159.378 49.5383 159.54 48.9048C160.129 46.6153 158.735 44.2829 156.448 43.7054C154.162 43.1282 151.829 44.5081 151.251 46.7977L151.25 46.8012C150.979 47.905 151.137 49.0504 151.726 50.0367C152.313 51.0188 153.241 51.7099 154.347 51.9933C154.56 52.0523 154.777 52.0857 154.97 52.1071L155.025 51.6101ZM155.025 51.6101C154.845 51.5901 154.655 51.5601 154.475 51.5101L157.335 51.1168V51.6001H157.325H155.915C155.621 51.6397 155.323 51.6436 155.025 51.6101ZM142.762 50.8152L142.699 50.5469L142.438 50.4573L139.695 49.5149V46.1754L142.438 45.233L142.699 45.1434L142.762 44.875C143.089 43.4888 143.638 42.1892 144.37 41.0145L144.516 40.7797L144.395 40.5311L143.122 37.9202L145.485 35.5572L148.096 36.8296L148.345 36.9508L148.58 36.8045C149.753 36.0739 151.052 35.5346 152.44 35.2068L152.709 35.1434L152.798 34.8826L153.741 32.1401H157.08L158.022 34.8826L158.112 35.1434L158.38 35.2068C159.767 35.5341 161.066 36.0828 162.241 36.8145L162.476 36.9608L162.724 36.8396L165.335 35.5671L167.698 37.9302L166.426 40.5411L166.305 40.7897L166.451 41.0245C167.182 42.1974 167.721 43.4967 168.049 44.885L168.112 45.1534L168.373 45.243L171.115 46.1854V49.5248L168.373 50.4673L168.112 50.5569L168.049 50.8252C167.721 52.2115 167.173 53.5111 166.441 54.6858L166.295 54.9205L166.416 55.1692L167.688 57.7801L165.325 60.1431L162.714 58.8707L162.466 58.7495L162.231 58.8958C161.058 59.6264 159.759 60.1657 158.37 60.4935L158.102 60.5569L158.012 60.8176L157.07 63.5601H153.731L152.788 60.8176L152.699 60.5569L152.43 60.4935C151.044 60.1662 149.744 59.6175 148.57 58.8857L148.335 58.7395L148.086 58.8607L145.475 60.1331L143.112 57.77L144.385 55.1592L144.506 54.9105L144.36 54.6758C143.629 53.5029 143.09 52.2036 142.762 50.8152ZM165.212 35.4437L165.212 35.444C165.212 35.4439 165.212 35.4438 165.212 35.4437L165.387 35.2687L165.212 35.4437ZM165.202 60.2666C165.202 60.2664 165.202 60.2662 165.202 60.2661L165.202 60.2666ZM142.989 57.6466C142.989 57.6467 142.989 57.6468 142.989 57.6469L142.989 57.6466L142.814 57.8216L142.989 57.6466ZM156.751 55.4911C156.299 55.5846 155.926 55.6334 155.237 55.6465L155.237 55.4801H155.237H155.237H155.237H155.237H155.237H155.236H155.236H155.236H155.236H155.236H155.236H155.236H155.236H155.236H155.236H155.236H155.236H155.236H155.236H155.236H155.235H155.235H155.235C153.881 55.4801 152.618 55.2134 151.498 54.5927C150.851 54.2348 150.293 53.9022 149.796 53.4134L149.796 53.4133L149.796 53.4133L149.796 53.4132L149.795 53.4132L149.795 53.4132L149.795 53.4131L149.795 53.4131L149.795 53.413L149.795 53.413L149.795 53.4129L149.795 53.4129L149.795 53.4128L149.795 53.4128L149.795 53.4128L149.795 53.4127L149.795 53.4127L149.795 53.4126L149.795 53.4126L149.795 53.4126L149.795 53.4125L149.795 53.4125L149.795 53.4124L149.795 53.4124L149.795 53.4123L149.795 53.4123L149.795 53.4123L149.795 53.4122L149.794 53.4122L149.794 53.4121L149.794 53.4121L149.794 53.4121L149.794 53.412L149.794 53.412L149.794 53.412L149.794 53.4119L149.794 53.4119L149.794 53.4118L149.794 53.4118L149.794 53.4118L149.794 53.4117L149.794 53.4117L149.794 53.4116L149.794 53.4116L149.794 53.4116L149.794 53.4115L149.794 53.4115L149.794 53.4115L149.794 53.4114L149.794 53.4114L149.794 53.4114L149.794 53.4113L149.794 53.4113L149.794 53.4112L149.793 53.4112L149.793 53.4112L149.793 53.4111L149.793 53.4111L149.793 53.4111L149.793 53.411L149.793 53.411L149.793 53.411L149.793 53.4109L149.793 53.4109L149.793 53.4109L149.793 53.4108L149.793 53.4108L149.793 53.4108L149.793 53.4107L149.793 53.4107L149.793 53.4107L149.793 53.4106L149.793 53.4106L149.793 53.4106L149.793 53.4105L149.793 53.4105L149.793 53.4105L149.793 53.4105L149.793 53.4104L149.793 53.4104L149.793 53.4104L149.793 53.4103L149.793 53.4103L149.793 53.4103L149.793 53.4102L149.792 53.4102L149.792 53.4102L149.792 53.4102L149.792 53.4101L149.792 53.4101L149.792 53.4101L149.792 53.41L149.792 53.41L149.792 53.41L149.792 53.4099L149.792 53.4099L149.792 53.4099L149.792 53.4099L149.792 53.4098L149.792 53.4098L149.792 53.4098L149.792 53.4098L149.792 53.4097L149.792 53.4097L149.792 53.4097L149.792 53.4096L149.792 53.4096L149.792 53.4096L149.792 53.4096L149.792 53.4095L149.792 53.4095L149.792 53.4095L149.792 53.4095L149.792 53.4094L149.792 53.4094L149.792 53.4094L149.792 53.4094L149.792 53.4093L149.792 53.4093L149.792 53.4093L149.792 53.4093L149.792 53.4092L149.791 53.4092L149.791 53.4092L149.791 53.4092L149.791 53.4091L149.791 53.4091L149.791 53.4091L149.791 53.4091L149.791 53.409L149.791 53.409L149.791 53.409L149.791 53.409L149.791 53.409L149.791 53.4089L149.791 53.4089L149.791 53.4089L149.791 53.4089L149.791 53.4088L149.791 53.4088L149.791 53.4088L149.791 53.4088L149.791 53.4088L149.791 53.4087L149.791 53.4087L149.791 53.4087L149.791 53.4087L149.791 53.4087L149.791 53.4086L149.791 53.4086L149.791 53.4086L149.791 53.4086L149.791 53.4086L149.791 53.4085L149.791 53.4085L149.791 53.4085L149.791 53.4085L149.791 53.4085L149.791 53.4084L149.791 53.4084L149.791 53.4084L149.791 53.4084L149.791 53.4084L149.791 53.4083L149.791 53.4083L149.791 53.4083L149.791 53.4083L149.791 53.4083L149.791 53.4083L149.791 53.4082L149.79 53.4082L149.79 53.4082L149.79 53.4082L149.79 53.4082L149.79 53.4081L149.79 53.4081L149.79 53.4081L149.79 53.4081L149.79 53.4081L149.79 53.4081L149.79 53.4081L149.79 53.408L149.79 53.408L149.79 53.408L149.79 53.408L149.79 53.408L149.79 53.408L149.79 53.4079L149.79 53.4079L149.79 53.4079L149.79 53.4079L149.79 53.4079L149.79 53.4079L149.79 53.4078L149.79 53.4078L149.79 53.4078L149.79 53.4078L149.79 53.4078L149.79 53.4078L149.79 53.4078L149.79 53.4077L149.79 53.4077L149.79 53.4077L149.79 53.4077L149.79 53.4077L149.79 53.4077L149.79 53.4077L149.79 53.4077L149.79 53.4076L149.79 53.4076L149.79 53.4076L149.79 53.4076L149.79 53.4076L149.79 53.4076L149.79 53.4076L149.79 53.4075L149.79 53.4075L149.79 53.4075L149.79 53.4075L149.79 53.4075L149.79 53.4075L149.79 53.4075L149.79 53.4075L149.79 53.4075L149.79 53.4074L149.79 53.4074L149.79 53.4074L149.79 53.4074L149.79 53.4074L149.79 53.4074L149.79 53.4074L149.79 53.4074L149.79 53.4073L149.79 53.4073L149.79 53.4073L149.79 53.4073L149.79 53.4073L149.79 53.4073L149.79 53.4072L149.79 53.4072L149.789 53.4072L149.789 53.4072L149.789 53.4072L149.789 53.4072L149.789 53.4071L149.789 53.4071L149.789 53.4071L149.789 53.4071L149.789 53.4071L149.789 53.4071L149.789 53.407L149.789 53.407L149.789 53.407L149.789 53.407L149.789 53.407L149.789 53.407L149.789 53.407L149.789 53.4069L149.789 53.4069L149.789 53.4069L149.789 53.4069L149.789 53.4069L149.789 53.4069L149.789 53.4069L149.789 53.4069L149.789 53.4068L149.789 53.4068L149.789 53.4068L149.789 53.4068L149.789 53.4068L149.789 53.4068L149.789 53.4068L149.789 53.4067L149.789 53.4067L149.789 53.4067L149.789 53.4067L149.789 53.4067L149.789 53.4067L149.789 53.4067L149.789 53.4067L149.789 53.4067L149.789 53.4066L149.789 53.4066L149.789 53.4066L149.789 53.4066L149.789 53.4066L149.789 53.4066L149.435 53.7601L149.789 53.4066L149.769 53.3867L149.749 53.3666C148.253 51.8708 147.435 49.8882 147.435 47.7701C147.435 47.4918 147.445 47.2298 147.473 46.9616L147.473 46.9594C147.651 45.1564 148.449 43.4834 149.749 42.1837C151.244 40.6882 153.227 39.8704 155.344 39.8701C157.453 39.8798 159.436 40.698 160.932 42.1937C162.428 43.6895 163.245 45.6721 163.245 47.7901C163.245 48.0593 163.236 48.3303 163.208 48.5869L163.208 48.5912C163.095 49.7347 162.72 50.8446 162.125 51.8447L162.125 51.8447L162.121 51.8521C162.073 51.9358 161.993 52.0892 161.986 52.2811C161.956 52.6509 162.134 53.0221 162.472 53.2211L162.473 53.222C162.933 53.4901 163.555 53.3687 163.845 52.8755C164.592 51.6331 165.055 50.2433 165.203 48.801L165.203 48.7983C165.234 48.4771 165.255 48.1404 165.255 47.8001C165.255 45.1584 164.233 42.6709 162.359 40.7966C160.485 38.9232 157.998 37.8901 155.355 37.8901C152.88 37.8901 150.541 38.7873 148.714 40.4419L148.686 40.4143L148.333 40.7654C146.7 42.3875 145.71 44.4851 145.478 46.7492L145.478 46.7492L145.477 46.7535C145.447 47.0838 145.425 47.4299 145.425 47.7696C145.415 52.8894 149.322 57.122 154.315 57.6276L154.317 57.6278C154.638 57.6589 154.975 57.6801 155.315 57.6801C155.987 57.6801 156.651 57.6171 157.316 57.4798L157.345 57.4738L157.373 57.4645C157.378 57.4629 157.383 57.4613 157.387 57.4597L157.396 57.4577C157.868 57.3505 158.101 56.9601 158.142 56.5929C158.158 56.4659 158.127 56.3632 158.105 56.3072C158.083 56.2527 158.057 56.2088 158.044 56.1878C157.951 55.896 157.719 55.7074 157.522 55.6066C157.306 55.4957 157.024 55.4318 156.751 55.4911Z" fill="#26417F" stroke="#949AB3"/>
<path d="M22.8652 115.11C20.3735 115.11 18 113.191 18 110.776V40.6076C18 35.1094 22.9636 31.1099 28.6364 31.1099H137.659C143.332 31.1099 148 35.1094 148 40.6076V110.776C148 113.191 145.912 115.11 143.42 115.11H22.8652Z" fill="url(#paint0_linear_1812_160542)"/>
<path d="M21.7681 117.01C19.679 117.01 17.8281 115.342 17.8281 113.47V39.9598C17.8281 34.8558 22.3106 31.0098 27.6281 31.0098H138.328C143.608 31.0098 147.828 34.8213 147.828 39.9598V113.47C147.828 115.417 146.187 117.01 144.178 117.01H21.7681Z" stroke="url(#paint1_linear_1812_160542)" stroke-width="2"/>
<path d="M144.187 125.87H21.7666C17.0566 125.87 13.2266 122.83 13.2266 119.1V113.48C13.2266 112.85 13.7366 112.33 14.3766 112.33H151.577C152.207 112.33 152.727 112.84 152.727 113.48V119.1C152.727 122.83 148.897 125.87 144.197 125.87H144.187Z" fill="#191C29"/>
<path d="M144.187 125.87H21.7666C17.0566 125.87 13.2266 122.83 13.2266 119.1V113.48C13.2266 112.85 13.7366 112.33 14.3766 112.33H151.577C152.207 112.33 152.727 112.84 152.727 113.48V119.1C152.727 122.83 148.897 125.87 144.197 125.87H144.187ZM15.5266 114.62V119.1C15.5266 121.53 18.3866 123.58 21.7766 123.58H144.197C147.577 123.58 150.437 121.53 150.437 119.1V114.62H15.5166H15.5266Z" fill="#949AB3"/>
<path d="M82.9672 122.7C80.9872 122.7 79.3672 121.08 79.3672 119.09C79.3672 117.1 80.9872 115.49 82.9672 115.49C84.9472 115.49 86.5772 117.11 86.5772 119.09C86.5772 121.07 84.9572 122.7 82.9672 122.7ZM82.9672 117.79C82.2472 117.79 81.6572 118.38 81.6572 119.1C81.6572 119.82 82.2472 120.41 82.9672 120.41C83.6872 120.41 84.2772 119.82 84.2772 119.1C84.2772 118.38 83.6872 117.79 82.9672 117.79Z" fill="#F2F2F2"/>
<g filter="url(#filter0_d_1812_160542)">
<path d="M45.0331 96.3098C39.1031 89.9498 29.1031 89.6098 22.7531 95.5398C16.3931 101.47 16.0531 111.47 21.9831 117.82C27.9131 124.18 37.9132 124.52 44.2632 118.59C50.6232 112.66 50.9631 102.66 45.0331 96.3098ZM41.5031 115.64C36.7731 120.05 29.3431 119.79 24.9331 115.07C20.5231 110.34 20.7831 102.91 25.5031 98.4998C30.2331 94.0898 37.6632 94.3498 42.0732 99.0698C46.4832 103.8 46.2231 111.23 41.5031 115.64Z" fill="#A4ACC1"/>
<path d="M46.202 107.077C46.2901 100.157 40.7522 94.4764 33.8326 94.3883C26.9131 94.3001 21.2322 99.8381 21.144 106.758C21.0558 113.677 26.5938 119.358 33.5134 119.446C40.4329 119.534 46.1138 113.996 46.202 107.077Z" fill="#223563"/>
<path opacity="0.35" d="M25.579 107.7C26.2915 107.7 26.869 107.122 26.869 106.41C26.869 105.697 26.2915 105.12 25.579 105.12C24.8666 105.12 24.2891 105.697 24.2891 106.41C24.2891 107.122 24.8666 107.7 25.579 107.7Z" fill="#949AB3"/>
<path d="M44.3772 96.4699C38.6072 90.5599 29.1372 90.4299 23.2272 96.1999C17.3172 101.97 17.1872 111.44 22.9572 117.35C28.7272 123.26 38.1972 123.39 44.1072 117.62C50.0172 111.85 50.1472 102.38 44.3772 96.4699ZM24.6972 115.66C19.8672 110.7 19.9672 102.77 24.9272 97.9399C29.8872 93.1099 37.8172 93.2099 42.6472 98.1699C47.4772 103.13 47.3772 111.06 42.4172 115.89C37.4572 120.72 29.5272 120.62 24.6972 115.66Z" fill="#566B9C"/>
<path d="M5.13939 134.72C3.72939 133.27 3.75939 130.95 5.20939 129.54L16.0194 119L21.1294 124.24L10.3194 134.78C8.86939 136.19 6.54939 136.16 5.13939 134.71V134.72Z" fill="#566B9C"/>
<path d="M23.949 118.887L21.4361 116.31C20.3798 115.226 18.645 115.204 17.5614 116.26L16.6592 117.14C15.5756 118.196 15.5535 119.931 16.6098 121.014L19.1228 123.592C20.1791 124.676 21.9138 124.698 22.9974 123.642L23.8996 122.762C24.9832 121.706 25.0053 119.971 23.949 118.887Z" fill="#A4ACC1"/>
</g>
<path d="M57.9369 80.6797V78.2898L68.4806 61.6074H70.2144V65.3094H69.0429L61.0766 77.9149V78.1024H75.2754V80.6797H57.9369ZM69.2304 85.6001V79.9534V78.8404V61.6074H71.9952V85.6001H69.2304ZM87.4914 85.9281C85.7263 85.9281 84.2229 85.4478 82.9811 84.4872C81.7393 83.5187 80.7903 82.1168 80.1343 80.2814C79.4782 78.4382 79.1502 76.2123 79.1502 73.6037C79.1502 71.0108 79.4782 68.7966 80.1343 66.9612C80.7982 65.118 81.751 63.7122 82.9928 62.7437C84.2424 61.7675 85.742 61.2793 87.4914 61.2793C89.2409 61.2793 90.7365 61.7675 91.9784 62.7437C93.228 63.7122 94.1808 65.118 94.8369 66.9612C95.5007 68.7966 95.8327 71.0108 95.8327 73.6037C95.8327 76.2123 95.5046 78.4382 94.8486 80.2814C94.1925 82.1168 93.2436 83.5187 92.0018 84.4872C90.76 85.4478 89.2565 85.9281 87.4914 85.9281ZM87.4914 83.3508C89.2409 83.3508 90.5999 82.5073 91.5683 80.8203C92.5368 79.1333 93.021 76.7278 93.021 73.6037C93.021 71.5262 92.7984 69.7572 92.3532 68.2967C91.9159 66.8363 91.2833 65.7233 90.4554 64.9579C89.6353 64.1925 88.6473 63.8098 87.4914 63.8098C85.7576 63.8098 84.4025 64.665 83.4263 66.3755C82.45 68.0781 81.9619 70.4875 81.9619 73.6037C81.9619 75.6812 82.1805 77.4463 82.6179 78.899C83.0553 80.3517 83.684 81.4568 84.5041 82.2144C85.3319 82.972 86.3277 83.3508 87.4914 83.3508ZM99.7221 80.6797V78.2898L110.266 61.6074H112V65.3094H110.828L102.862 77.9149V78.1024H117.061V80.6797H99.7221ZM111.016 85.6001V79.9534V78.8404V61.6074H113.78V85.6001H111.016Z" fill="#949AB3"/>
<defs>
<filter id="filter0_d_1812_160542" x="0.101562" y="87.3066" width="57.1641" height="56.5112" filterUnits="userSpaceOnUse" color-interpolation-filters="sRGB">
<feFlood flood-opacity="0" result="BackgroundImageFix"/>
<feColorMatrix in="SourceAlpha" type="matrix" values="0 0 0 0 0 0 0 0 0 0 0 0 0 0 0 0 0 0 127 0" result="hardAlpha"/>
<feOffset dx="2" dy="2"/>
<feGaussianBlur stdDeviation="3"/>
<feColorMatrix type="matrix" values="0 0 0 0 0 0 0 0 0 0 0 0 0 0 0 0 0 0 0.2 0"/>
<feBlend mode="normal" in2="BackgroundImageFix" result="effect1_dropShadow_1812_160542"/>
<feBlend mode="normal" in="SourceGraphic" in2="effect1_dropShadow_1812_160542" result="shape"/>
</filter>
<linearGradient id="paint0_linear_1812_160542" x1="23.813" y1="35.6641" x2="145.061" y2="112.177" gradientUnits="userSpaceOnUse">
<stop stop-color="#264180"/>
<stop offset="1" stop-color="#191C29"/>
</linearGradient>
<linearGradient id="paint1_linear_1812_160542" x1="82.8281" y1="30.0098" x2="147" y2="116.11" gradientUnits="userSpaceOnUse">
<stop stop-color="#677393"/>
<stop offset="1" stop-color="#677393"/>
</linearGradient>
</defs>
</svg>
