<svg width="20" height="20" viewBox="0 0 20 20" fill="none" xmlns="http://www.w3.org/2000/svg">
    <g clip-path="url(#clip0_2242_143427)">
        <path d="M0.52638 5.27963C0.665926 5.27982 0.799882 5.22431 0.898566 5.12563C0.99725 5.02694 1.05276 4.89299 1.05257 4.75344V0.542789C1.05257 0.252133 0.817036 0.0166016 0.52638 0.0166016C0.235724 0.0166016 0 0.252133 0 0.542789V4.75344C0 4.89299 0.0553171 5.02694 0.154001 5.12563C0.252878 5.22431 0.386642 5.27982 0.52638 5.27963Z" fill="#929AB5"/>
        <path d="M6.31626 0.0166016C5.15403 0.0179507 4.21229 0.959691 4.21094 2.12174V3.1745C4.21094 4.33712 5.15364 5.27963 6.31626 5.27963C7.47889 5.27963 8.42159 4.33712 8.42159 3.1745V2.12174C8.42024 0.959691 7.4785 0.0179507 6.31626 0.0166016ZM7.36883 3.1745C7.36883 3.75581 6.89758 4.22706 6.31626 4.22706C5.73495 4.22706 5.2637 3.75581 5.2637 3.1745V2.12174C5.2637 1.54042 5.73495 1.06917 6.31626 1.06917C6.89758 1.06917 7.36883 1.54042 7.36883 2.12174V3.1745Z" fill="#929AB5"/>
        <path d="M12.1043 5.27963C12.2441 5.27982 12.3778 5.22431 12.4767 5.12563C12.5754 5.02694 12.6307 4.89299 12.6307 4.75344V0.542789C12.6307 0.252133 12.395 0.0166016 12.1043 0.0166016C11.8137 0.0166016 11.5781 0.252133 11.5781 0.542789V4.75344C11.5779 4.89299 11.6334 5.02694 11.7321 5.12563C11.8308 5.22431 11.9648 5.27982 12.1043 5.27963Z" fill="#929AB5"/>
        <path d="M17.8944 0.0166016C16.7322 0.0179507 15.7904 0.959691 15.7891 2.12174V3.1745C15.7891 4.33712 16.7316 5.27963 17.8944 5.27963C19.057 5.27963 19.9995 4.33712 19.9995 3.1745V2.12174C19.9982 0.959691 19.0564 0.0179507 17.8944 0.0166016ZM18.947 3.1745C18.947 3.75581 18.4757 4.22706 17.8944 4.22706C17.3129 4.22706 16.8416 3.75581 16.8416 3.1745V2.12174C16.8416 1.54042 17.3129 1.06917 17.8944 1.06917C18.4757 1.06917 18.947 1.54042 18.947 2.12174V3.1745Z" fill="#929AB5"/>
        <path d="M19.4717 7.38477C19.332 7.38477 19.1982 7.44008 19.0993 7.53877C19.0006 7.63764 18.9453 7.77141 18.9453 7.91115V12.1216C18.9453 12.4123 19.181 12.648 19.4717 12.648C19.7623 12.648 19.9979 12.4123 19.9979 12.1216V7.91115C19.9981 7.77141 19.9426 7.63764 19.8439 7.53877C19.7452 7.44008 19.6112 7.38477 19.4717 7.38477Z" fill="#929AB5"/>
        <path d="M15.7886 9.49009C15.7886 8.32728 14.8461 7.38477 13.6833 7.38477C12.5206 7.38477 11.5781 8.32728 11.5781 9.49009V10.5427C11.5781 11.7053 12.5206 12.648 13.6833 12.648C14.8461 12.648 15.7886 11.7053 15.7886 10.5427V9.49009ZM14.736 10.5427C14.736 11.124 14.2648 11.5952 13.6833 11.5952C13.1019 11.5952 12.6307 11.124 12.6307 10.5427V9.49009C12.6307 8.90859 13.1019 8.43733 13.6833 8.43733C14.2648 8.43733 14.736 8.90859 14.736 9.49009V10.5427Z" fill="#929AB5"/>
        <path d="M7.89357 7.38477C7.75402 7.38477 7.62007 7.44008 7.52138 7.53877C7.4225 7.63764 7.36719 7.77141 7.36719 7.91115V12.1216C7.36719 12.4123 7.60291 12.648 7.89357 12.648C8.18422 12.648 8.41995 12.4123 8.41995 12.1216V7.91115C8.41995 7.77141 8.36463 7.63764 8.26575 7.53877C8.16707 7.44008 8.03311 7.38477 7.89357 7.38477Z" fill="#929AB5"/>
        <path d="M4.21046 9.49009C4.21046 8.32728 3.26795 7.38477 2.10533 7.38477C0.942511 7.38477 0 8.32728 0 9.49009V10.5427C0 11.7053 0.942511 12.648 2.10533 12.648C3.26795 12.648 4.21046 11.7053 4.21046 10.5427V9.49009ZM3.15789 10.5427C3.15789 11.124 2.68664 11.5952 2.10533 11.5952C1.52382 11.5952 1.05257 11.124 1.05257 10.5427V9.49009C1.05257 8.90859 1.52382 8.43733 2.10533 8.43733C2.68664 8.43733 3.15789 8.90859 3.15789 9.49009V10.5427Z" fill="#929AB5"/>
        <path d="M0.52638 14.7534C0.386642 14.7534 0.252878 14.8087 0.154001 14.9076C0.0553171 15.0063 0 15.1403 0 15.2798V19.4903C0 19.7809 0.235724 20.0166 0.52638 20.0166C0.817036 20.0166 1.05257 19.7809 1.05257 19.4903V15.2798C1.05276 15.1403 0.99725 15.0063 0.898566 14.9076C0.799882 14.8087 0.665926 14.7534 0.52638 14.7534Z" fill="#929AB5"/>
        <path d="M6.31626 14.7534C5.15403 14.7548 4.21229 15.6965 4.21094 16.8587V17.9113C4.21094 19.0741 5.15364 20.0166 6.31626 20.0166C7.47889 20.0166 8.42159 19.0741 8.42159 17.9113V16.8587C8.42024 15.6965 7.4785 14.7548 6.31626 14.7534ZM7.36883 17.9113C7.36883 18.4928 6.89758 18.9641 6.31626 18.9641C5.73495 18.9641 5.2637 18.4928 5.2637 17.9113V16.8587C5.2637 16.2774 5.73495 15.8062 6.31626 15.8062C6.89758 15.8062 7.36883 16.2774 7.36883 16.8587V17.9113Z" fill="#929AB5"/>
        <path d="M12.1043 14.7534C11.9648 14.7534 11.8308 14.8087 11.7321 14.9076C11.6334 15.0063 11.5779 15.1403 11.5781 15.2798V19.4903C11.5781 19.7809 11.8137 20.0166 12.1043 20.0166C12.395 20.0166 12.6307 19.7809 12.6307 19.4903V15.2798C12.6307 15.1403 12.5754 15.0063 12.4767 14.9076C12.3778 14.8087 12.2441 14.7534 12.1043 14.7534Z" fill="#929AB5"/>
        <path d="M17.8944 14.7534C16.7322 14.7548 15.7904 15.6965 15.7891 16.8587V17.9113C15.7891 19.0741 16.7316 20.0166 17.8944 20.0166C19.057 20.0166 19.9995 19.0741 19.9995 17.9113V16.8587C19.9982 15.6965 19.0564 14.7548 17.8944 14.7534ZM18.947 17.9113C18.947 18.4928 18.4757 18.9641 17.8944 18.9641C17.3129 18.9641 16.8416 18.4928 16.8416 17.9113V16.8587C16.8416 16.2774 17.3129 15.8062 17.8944 15.8062C18.4757 15.8062 18.947 16.2774 18.947 16.8587V17.9113Z" fill="#929AB5"/>
    </g>
    <defs>
        <clipPath id="clip0_2242_143427">
            <rect width="20" height="20" fill="white"/>
        </clipPath>
    </defs>
</svg>
