<svg width="20" height="20" viewBox="0 0 20 20" fill="none" xmlns="http://www.w3.org/2000/svg">
    <path fill-rule="evenodd" clip-rule="evenodd" d="M6.46094 3.75008C6.46094 2.25431 7.67351 1.04175 9.16927 1.04175C10.665 1.04175 11.8776 2.25431 11.8776 3.75008V7.91675C11.8776 9.4125 10.665 10.6251 9.16927 10.6251C7.67351 10.6251 6.46094 9.4125 6.46094 7.91675V3.75008ZM9.16927 2.29175C8.36385 2.29175 7.71094 2.94467 7.71094 3.75008V7.91675C7.71094 8.72216 8.36385 9.37508 9.16927 9.37508C9.97469 9.37508 10.6276 8.72216 10.6276 7.91675V3.75008C10.6276 2.94467 9.97469 2.29175 9.16927 2.29175Z" fill="#929AB5"/>
    <path fill-rule="evenodd" clip-rule="evenodd" d="M10.8638 12.8916C11.1079 13.1356 11.1079 13.5313 10.8638 13.7754L8.80579 15.8335L10.8638 17.8916C11.1079 18.1356 11.1079 18.5313 10.8638 18.7754C10.6197 19.0195 10.224 19.0195 9.97996 18.7754L7.47993 16.2754C7.23586 16.0313 7.23586 15.6356 7.47993 15.3916L9.97996 12.8916C10.224 12.6475 10.6197 12.6475 10.8638 12.8916Z" fill="#929AB5"/>
    <path fill-rule="evenodd" clip-rule="evenodd" d="M2.71094 10C2.71094 9.65483 2.99076 9.375 3.33594 9.375H3.7526C4.09778 9.375 4.3776 9.65483 4.3776 10C4.3776 10.3452 4.09778 10.625 3.7526 10.625H3.33594C2.99076 10.625 2.71094 10.3452 2.71094 10Z" fill="#929AB5"/>
    <path fill-rule="evenodd" clip-rule="evenodd" d="M7.29688 15.8335C7.29688 15.4883 7.5767 15.2085 7.92188 15.2085H16.6719C17.017 15.2085 17.2969 15.4883 17.2969 15.8335C17.2969 16.1787 17.017 16.4585 16.6719 16.4585H7.92188C7.5767 16.4585 7.29688 16.1787 7.29688 15.8335Z" fill="#929AB5"/>
</svg>
