<svg width="20" height="20" viewBox="0 0 20 20" fill="none" xmlns="http://www.w3.org/2000/svg">
    <g clip-path="url(#clip0_2242_143357)">
        <path d="M12.3529 7.64707H18.2353C19.2099 7.64707 20 8.43715 20 9.41176V18.2353C20 19.2099 19.2099 20 18.2353 20H9.41176C8.43715 20 7.64707 19.2099 7.64707 18.2353V12.3529H1.76469C0.790078 12.3529 0 11.5629 0 10.5882V1.76469C0 0.790078 0.790078 0 1.76469 0H10.5882C11.5628 0 12.3529 0.790078 12.3529 1.76469L12.3529 7.64707ZM1.76469 1.17648C1.4398 1.17648 1.17645 1.43984 1.17645 1.76473V10.5882C1.17645 10.9131 1.4398 11.1765 1.76469 11.1765H10.5882C10.9131 11.1765 11.1764 10.9131 11.1764 10.5882V1.76469C11.1764 1.4398 10.9131 1.17645 10.5882 1.17645H1.76469V1.17648ZM12.3529 8.82352V10.5882C12.3529 11.5629 11.5629 12.3529 10.5882 12.3529H8.82352V18.2353C8.82352 18.5602 9.08687 18.8235 9.41176 18.8235H18.2353C18.5602 18.8235 18.8235 18.5602 18.8235 18.2353V9.41176C18.8235 9.08687 18.5602 8.82352 18.2353 8.82352H12.3529ZM5.34457 6.17648L4.28992 5.12184C4.06019 4.89211 4.06019 4.51965 4.28992 4.28996C4.51965 4.06027 4.89211 4.06023 5.1218 4.28996L6.17645 5.34461L7.23109 4.28996C7.46082 4.06023 7.83328 4.06023 8.06297 4.28996C8.2927 4.51969 8.2927 4.89215 8.06297 5.12184L7.00832 6.17648L8.06297 7.23113C8.2927 7.46086 8.2927 7.83332 8.06297 8.06301C7.83324 8.29274 7.46078 8.29274 7.23109 8.06301L6.17645 7.00836L5.1218 8.06301C4.89207 8.29274 4.51961 8.29274 4.28992 8.06301C4.06023 7.83328 4.06019 7.46082 4.28992 7.23113L5.34457 6.17648ZM12.1807 13.4076L13.2353 14.4622L15.7605 11.937C15.9903 11.7073 16.3627 11.7073 16.5924 11.937C16.8221 12.1667 16.8221 12.5392 16.5924 12.7689L13.6512 15.71C13.4215 15.9398 13.0491 15.9398 12.8194 15.71L11.3488 14.2395C11.1191 14.0097 11.1191 13.6373 11.3488 13.4076C11.5785 13.1779 11.9509 13.1779 12.1807 13.4076Z" fill="#929AB5"/>
    </g>
    <defs>
        <clipPath id="clip0_2242_143357">
            <rect width="20" height="20" fill="white"/>
        </clipPath>
    </defs>
</svg>
