<svg width="149" height="128" viewBox="0 0 149 128" fill="none" xmlns="http://www.w3.org/2000/svg">
<g clip-path="url(#clip0_1818_161300)">
<path d="M111.499 16.6201H9.25V89.8813H111.499V16.6201Z" fill="#26407C"/>
<path d="M6.82897 1.13781H113.92C117.139 1.13781 119.748 3.74705 119.748 6.9657V24.2538C119.748 27.4724 117.139 30.0817 113.92 30.0817H6.82897C3.61032 30.0817 1.00109 27.4724 1.00109 24.2538V6.9657C1.00109 3.74704 3.61032 1.13781 6.82897 1.13781Z" fill="url(#paint0_linear_1818_161300)" stroke="#687493" stroke-width="1.72093"/>
<path d="M57.9677 12.8496H13.5078V18.3689H57.9677V12.8496Z" fill="#32C7A0"/>
<path d="M73.7432 12.8496H66.7031V18.3689H73.7432V12.8496Z" fill="#32C7A0"/>
<path d="M90.1807 12.8496H83.1406V18.3689H90.1807V12.8496Z" fill="#D2E6FF"/>
<path d="M106.603 12.8501H99.5625V18.3694H106.603V12.8501Z" fill="#D2E6FF"/>
<path d="M6.82897 38.7779H113.92C117.139 38.7779 119.748 41.3872 119.748 44.6058V61.8939C119.748 65.1126 117.139 67.7218 113.92 67.7218H6.82897C3.61032 67.7218 1.00109 65.1126 1.00109 61.8939V44.6058C1.00109 41.3872 3.61032 38.7779 6.82897 38.7779Z" fill="url(#paint1_linear_1818_161300)" stroke="#687493" stroke-width="1.72093"/>
<path d="M57.9677 50.4897H13.5078V56.0091H57.9677V50.4897Z" fill="#32C7A0"/>
<path d="M73.7432 50.4897H66.7031V56.0091H73.7432V50.4897Z" fill="#32C7A0"/>
<path d="M90.1807 50.4897H83.1406V56.0091H90.1807V50.4897Z" fill="#D2E6FF"/>
<path d="M106.603 50.4897H99.5625V56.0091H106.603V50.4897Z" fill="#D2E6FF"/>
<path d="M6.82897 76.4191H113.92C117.139 76.4191 119.748 79.0283 119.748 82.247V99.535C119.748 102.754 117.139 105.363 113.92 105.363H6.82897C3.61032 105.363 1.00109 102.754 1.00109 99.535V82.247C1.00109 79.0283 3.61032 76.4191 6.82897 76.4191Z" fill="url(#paint2_linear_1818_161300)" stroke="#687493" stroke-width="1.72093"/>
<path d="M57.9677 88.1313H13.5078V93.6507H57.9677V88.1313Z" fill="#32C7A0"/>
<path d="M73.7432 88.1313H66.7031V93.6507H73.7432V88.1313Z" fill="#32C7A0"/>
<path d="M90.1807 88.1313H83.1406V93.6507H90.1807V88.1313Z" fill="#D2E6FF"/>
<path d="M106.603 88.1318H99.5625V93.6512H106.603V88.1318Z" fill="#D2E6FF"/>
<path d="M147.27 93.6516C147.27 111.811 132.549 126.532 114.389 126.532C96.23 126.532 81.5089 111.811 81.5089 93.6516C81.5089 75.4922 96.23 60.7711 114.389 60.7711C132.549 60.7711 147.27 75.4922 147.27 93.6516Z" fill="#26407C" stroke="#687493" stroke-width="1.72093"/>
<path d="M122.09 93.6518L131.011 84.7304C132.327 83.4145 132.327 81.2812 131.011 79.9652L128.068 77.0226C126.752 75.7067 124.619 75.7067 123.303 77.0226L114.382 85.944L105.46 77.0226C104.144 75.7067 102.011 75.7067 100.695 77.0226L97.7526 79.9652C96.4366 81.2812 96.4366 83.4145 97.7526 84.7304L106.674 93.6518L97.7526 102.573C96.4366 103.889 96.4366 106.022 97.7526 107.338L100.695 110.281C102.011 111.597 104.144 111.597 105.46 110.281L114.382 101.36L123.303 110.281C124.619 111.597 126.752 111.597 128.068 110.281L131.011 107.338C132.327 106.022 132.327 103.889 131.011 102.573L122.09 93.6518Z" fill="#D2E6FF"/>
</g>
<defs>
<linearGradient id="paint0_linear_1818_161300" x1="60.3744" y1="0.277344" x2="60.3744" y2="30.9421" gradientUnits="userSpaceOnUse">
<stop stop-color="#26407D"/>
<stop offset="1" stop-color="#1B2134"/>
</linearGradient>
<linearGradient id="paint1_linear_1818_161300" x1="60.3744" y1="37.9175" x2="60.3744" y2="68.5823" gradientUnits="userSpaceOnUse">
<stop stop-color="#26407D"/>
<stop offset="1" stop-color="#1B2134"/>
</linearGradient>
<linearGradient id="paint2_linear_1818_161300" x1="60.3744" y1="75.5586" x2="60.3744" y2="106.223" gradientUnits="userSpaceOnUse">
<stop stop-color="#26407D"/>
<stop offset="1" stop-color="#1B2134"/>
</linearGradient>
<clipPath id="clip0_1818_161300">
<rect width="148" height="127.114" fill="white" transform="translate(0.125 0.27832)"/>
</clipPath>
</defs>
</svg>
