<svg width="3527" height="900" viewBox="0 0 3527 900" fill="none" xmlns="http://www.w3.org/2000/svg">
<path d="M1501.01 642.056C1555.41 642.056 1593.13 620.999 1617.72 592.923V635.037H1701.94V405.148C1701.94 290.212 1649.3 227.918 1535.23 227.918C1468.53 227.918 1406.24 261.258 1369.39 291.089L1409.75 358.647C1428.17 343.732 1479.06 312.146 1528.21 312.146C1596.64 312.146 1615.07 341.977 1617.7 392.865H1554.53C1472.93 392.865 1354.47 411.29 1354.47 520.962C1354.47 593.8 1419.4 642.056 1501.01 642.056ZM1439.58 520.962C1439.58 481.48 1475.57 462.178 1547.51 462.178H1617.72V499.905C1610.68 530.629 1577.36 571.866 1515.05 571.866C1474.69 571.866 1439.58 552.563 1439.58 520.978V520.962ZM1920.1 824.566C2041.2 824.566 2134.2 743.847 2134.2 617.489V234.922H2049.97V293.721C2016.62 255.101 1968.37 227.918 1913.08 227.918C1798.13 227.918 1712.15 320.92 1712.15 434.995C1712.15 549.931 1798.13 642.071 1913.08 642.071C1968.36 642.071 2016.62 615.75 2049.97 577.145V617.505C2049.97 675.412 2008.72 739.46 1920.1 739.46C1848.14 739.46 1806.91 706.997 1793.75 689.45L1725.31 735.966C1753.39 778.08 1817.43 824.581 1920.1 824.581V824.566ZM1803.4 434.979C1803.4 367.421 1858.67 312.146 1927.12 312.146C1994.7 312.146 2049.97 367.421 2049.97 434.979C2049.97 503.415 1994.7 557.812 1927.12 557.812C1858.69 557.812 1803.4 503.415 1803.4 434.979ZM2179.52 635.037H2263.74V470.074C2263.74 379.689 2305.86 312.131 2385.7 312.131C2455.03 312.131 2498.9 363.896 2498.9 440.228V635.021H2583.14V433.209C2583.14 317.38 2529.6 227.887 2407.65 227.887C2343.58 227.887 2294.45 260.35 2263.74 309.483V234.891H2179.52V635.006V635.037ZM2808.33 642.056C2925.92 642.056 3022.43 549.931 3022.43 434.979C3022.43 320.905 2925.92 227.903 2808.33 227.903C2690.76 227.903 2593.36 320.905 2593.36 434.979C2593.36 549.916 2690.75 642.056 2808.33 642.056ZM2684.61 434.979C2684.61 367.421 2739.88 312.146 2808.33 312.146C2875.91 312.146 2931.18 367.421 2931.18 434.979C2931.18 503.415 2875.91 557.812 2808.33 557.812C2739.9 557.812 2684.61 503.415 2684.61 434.979ZM3160.75 642.056C3242.34 642.056 3316.06 602.574 3316.06 516.591C3316.06 427.098 3231.83 407.781 3181.8 391.126C3124.78 371.823 3105.47 363.034 3105.47 341.977C3105.47 310.392 3140.57 303.372 3161.64 303.372C3208.14 303.372 3237.09 332.326 3245.87 341.977L3300.27 292.844C3274.82 260.381 3225.67 227.918 3158.12 227.918C3085.29 227.918 3020.35 270.032 3020.35 347.241C3020.35 431.47 3104.58 454.297 3155.48 470.967C3211.65 489.392 3230.94 495.534 3230.94 520.116C3230.94 554.333 3194.97 565.739 3167.77 565.739C3109.86 565.739 3074.76 531.522 3066.87 517.484L2997.54 559.598C3016.84 599.957 3080.03 642.071 3160.75 642.071V642.056ZM3474.99 639.424C3485.52 639.424 3503.94 638.546 3513.61 637.669V556.95C3443.4 564.847 3418.85 542.912 3418.85 494.641V319.15H3526.78V234.922H3418.85V117.338H3334.62V234.922V319.15V494.641C3334.62 585.011 3371.47 639.424 3475 639.424H3474.99Z" fill="white"/>
<path fill-rule="evenodd" clip-rule="evenodd" d="M743.37 376.103C736.505 382.799 727.131 386.908 716.803 386.908C695.761 386.908 678.721 369.853 678.721 348.812C678.721 336.528 684.524 325.615 693.544 318.658C729.332 290.443 769.707 269.355 812.699 256.117C802.416 241.648 790.795 227.857 780.39 217.22C733.088 168.888 674.596 142.089 606.407 142.089C538.895 142.089 480.834 168.349 433.687 215.958C422.758 226.995 410.752 241.171 400.177 256.056C453.466 272.372 502.738 300.787 544.005 339.992L705.674 493.564L922.001 684.54C930.591 691.097 940.934 694.591 951.771 694.591C978.877 694.591 1000.84 672.641 1000.84 645.52C1000.84 637.731 999.041 630.142 995.501 623.216L849.856 324.568C811.359 334.204 775.187 351.644 743.401 376.087L743.37 376.103ZM244.835 243.234L261.305 209.894L262.275 208.2C280.592 176.045 305.035 144.259 330.879 117.846C404.995 42.1142 500.075 0 606.422 0C712.77 0 807.85 42.0988 881.965 117.846C907.809 144.259 932.237 176.045 950.555 208.2L951.524 209.894L967.995 243.234L967.918 243.218C964.916 242.849 961.914 242.495 958.913 242.187L958.79 242.172L958.621 242.156C955.727 241.864 952.817 241.602 949.908 241.387L949.493 241.356L949.169 241.325C943.089 240.863 936.978 240.556 930.806 240.402H930.667C927.512 240.325 924.357 240.279 921.17 240.279H920.724H920.277H919.847H919.4H918.954H918.523H918.076H917.645H917.214H916.783L916.352 240.294H915.921H915.49L915.059 240.309H914.628L914.197 240.325H913.766L913.335 240.34L912.904 240.355L912.473 240.371L912.042 240.386H912.027L911.596 240.402L911.165 240.417H911.15L910.719 240.432L910.288 240.448L909.857 240.463H909.841L909.41 240.479L908.979 240.494H908.964L908.533 240.509L908.102 240.525H908.087L907.656 240.54H907.64L907.209 240.556H907.194L906.763 240.571H906.747L906.316 240.586L905.885 240.602H905.87L905.439 240.617H905.424L904.993 240.633L904.562 240.648H904.546L904.115 240.663H904.1L903.669 240.679H903.653L903.222 240.694H903.207L902.776 240.725H902.761L902.33 240.74H902.314L901.883 240.756H901.868L901.452 240.786H901.437L901.021 240.802H901.006L900.59 240.833H900.575L900.159 240.863H900.144L899.728 240.894H899.713L899.297 240.925H899.282L898.866 240.956H898.851L898.435 240.987H898.42L898.004 241.017H897.989L897.573 241.048H897.558L897.142 241.079H897.127L896.711 241.11H896.696L896.28 241.141H896.265L895.849 241.171H895.819L895.403 241.202H895.388L894.972 241.233H894.957L894.541 241.264H894.51L894.095 241.294H894.064L893.648 241.325H893.633L893.217 241.356L893.033 240.971C877.194 213.172 855.074 185.034 834.633 164.147C773.047 101.206 695.038 66.1882 606.376 66.1882C517.73 66.1882 439.72 101.206 378.119 164.147C357.678 185.034 335.559 213.172 319.735 240.971L319.55 241.356L319.135 241.325H319.104L318.688 241.294H318.673L318.257 241.264H318.242L317.826 241.233H317.811L317.395 241.202H317.38L316.964 241.171H316.934L316.518 241.141H316.487L316.072 241.11H316.056L315.641 241.079H315.625L315.21 241.048H315.194L314.779 241.017H314.763L314.348 240.987H314.332L313.917 240.956H313.901L313.486 240.925H313.47L313.055 240.894H313.039L312.624 240.863H312.608L312.177 240.848H312.162L311.731 240.817H311.716L311.3 240.786H311.285L310.854 240.756H310.838L310.407 240.74H310.392L309.976 240.71H309.961L309.53 240.694H309.514L309.083 240.679H309.068L308.652 240.663H308.637L308.206 240.633H308.191L307.76 240.617H307.744L307.313 240.602H307.298L306.867 240.586H306.852L306.421 240.571H306.405L305.974 240.556H305.959L305.528 240.54H305.512L305.081 240.525H305.066L304.635 240.509H304.62L304.189 240.494H304.173L303.742 240.479H303.727L303.296 240.463L302.865 240.448L302.434 240.432H302.418L301.987 240.417L301.556 240.402L301.125 240.386H301.11L300.679 240.371H300.664L300.233 240.355H300.217L299.786 240.34L299.355 240.325L298.924 240.309H298.493L298.062 240.294H297.631L297.2 240.279H296.769H296.338L295.907 240.263H295.461H295.03H294.584H294.137H293.691H293.244H292.813H292.367H291.921H291.49C288.319 240.263 285.148 240.309 281.992 240.386H281.854C272.495 240.633 263.229 241.217 254.055 242.141L253.87 242.156C250.792 242.48 247.729 242.818 244.681 243.203L244.835 243.234ZM474.215 529.89C495.257 529.89 512.297 546.945 512.297 567.972C512.297 578.746 507.833 588.459 500.644 595.386L500.598 595.432C500.136 595.863 499.675 596.294 499.197 596.71L339.484 742.893L338.699 743.524C316.564 761.072 289.319 770.538 261.074 770.538C192.053 770.538 136.071 714.555 136.071 645.535C136.071 625.725 140.735 606.253 149.585 588.936L282.685 315.979C125.742 320.813 0 449.541 0 607.654C0 768.83 130.637 899.482 291.828 899.482H920.97C1082.16 899.482 1212.8 768.845 1212.8 607.654C1212.8 449.541 1087.06 320.813 930.113 315.979L1063.21 588.936C1072.08 606.253 1076.74 625.709 1076.74 645.535C1076.74 714.555 1020.78 770.538 951.74 770.538C923.495 770.538 896.25 761.072 874.115 743.524L873.33 742.893L654.355 549.593L567.094 466.688L491.701 395.051C455.221 360.402 410.875 336.452 363.004 324.538L217.344 623.231C213.788 630.158 212.002 637.762 212.002 645.535C212.002 672.641 233.952 694.607 261.059 694.607C271.895 694.607 282.254 691.112 290.828 684.555L445.354 543.143C452.342 535.047 462.671 529.906 474.215 529.906V529.89Z" fill="url(#paint0_linear_2_20)"/>
<path fill-rule="evenodd" clip-rule="evenodd" d="M743.37 376.103C736.505 382.799 727.131 386.909 716.803 386.909C695.761 386.909 678.721 369.854 678.721 348.812C678.721 336.529 684.524 325.615 693.544 318.658C729.332 290.443 769.707 269.355 812.699 256.118C802.416 241.649 790.795 227.857 780.39 217.221C733.088 168.888 674.596 142.089 606.407 142.089C538.895 142.089 480.834 168.349 433.687 215.959C422.758 226.995 410.752 241.172 400.177 256.056C453.466 272.372 502.738 300.787 544.005 339.992L705.674 493.564L922.001 684.54C930.591 691.097 940.934 694.591 951.771 694.591C978.877 694.591 1000.84 672.642 1000.84 645.52C1000.84 637.731 999.041 630.143 995.501 623.216L849.856 324.569C811.359 334.204 775.187 351.644 743.401 376.088L743.37 376.103ZM244.835 243.234C244.835 243.234 229.858 280.13 212.649 326.724C235.014 320.428 258.473 316.734 282.685 315.98L149.585 588.937C140.719 606.253 136.071 625.71 136.071 645.535C136.071 714.556 192.038 770.539 261.074 770.539C289.319 770.539 316.564 761.072 338.699 743.525L339.484 742.893L499.198 596.71C499.675 596.294 500.137 595.863 500.598 595.432L500.644 595.386C507.833 588.459 512.297 578.731 512.297 567.972C512.297 546.946 495.257 529.891 474.215 529.891C462.671 529.891 452.342 535.032 445.354 543.128L290.828 684.54C282.239 691.097 271.895 694.591 261.059 694.591C233.952 694.591 212.002 672.642 212.002 645.52C212.002 637.731 213.788 630.143 217.344 623.216L363.004 324.523C410.875 336.436 455.205 360.387 491.701 395.036L567.094 466.673L654.355 549.578L873.33 742.878L874.115 743.509C896.25 761.057 923.495 770.523 951.74 770.523C1020.78 770.523 1076.74 714.54 1076.74 645.52C1076.74 625.71 1072.08 606.238 1063.21 588.921L930.113 315.964C956.727 316.78 982.448 321.182 1006.81 328.663L967.964 243.203L967.902 243.188C964.901 242.819 961.899 242.465 958.898 242.157L958.774 242.141L958.605 242.126C955.711 241.833 952.802 241.572 949.893 241.356L949.477 241.326L949.154 241.295C943.074 240.833 936.963 240.525 930.791 240.371H930.652C927.497 240.294 924.341 240.248 921.155 240.248H920.709H920.262H919.831H919.385H918.938H918.507H918.061H917.63H917.199H916.768L916.337 240.263H915.906H915.475L915.044 240.279H914.613L914.182 240.294H913.751L913.32 240.31L912.889 240.325L912.458 240.34L912.027 240.356H912.012L911.581 240.371L911.15 240.387H911.134L910.703 240.402L910.272 240.417L909.841 240.433H909.826L909.395 240.448L908.964 240.464H908.949L908.518 240.479L908.087 240.494H908.071L907.64 240.51H907.625L907.194 240.525H907.178L906.747 240.541H906.732L906.301 240.556L905.87 240.571H905.855L905.424 240.587H905.408L904.977 240.602L904.546 240.617H904.531L904.1 240.633H904.084L903.654 240.648H903.638L903.207 240.664H903.192L902.761 240.694H902.745L902.314 240.71H902.299L901.868 240.725H901.853L901.437 240.756H901.422L901.006 240.771H900.991L900.575 240.802H900.56L900.144 240.833H900.129L899.713 240.864H899.698L899.282 240.895H899.267L898.851 240.925H898.836L898.42 240.956H898.405L897.989 240.987H897.974L897.558 241.018H897.543L897.127 241.048H897.112L896.696 241.079H896.681L896.265 241.11H896.25L895.834 241.141H895.803L895.388 241.172H895.372L894.957 241.202H894.941L894.526 241.233H894.495L894.079 241.264H894.049L893.633 241.295H893.617L893.202 241.326L893.017 240.941C877.178 213.142 855.059 185.004 834.618 164.116C773.032 101.176 695.022 66.1577 606.361 66.1577C517.715 66.1577 439.705 101.176 378.104 164.116C357.663 185.004 335.543 213.142 319.72 240.941L319.535 241.326L319.119 241.295H319.089L318.673 241.264H318.658L318.242 241.233H318.227L317.811 241.202H317.796L317.38 241.172H317.365L316.949 241.141H316.918L316.503 241.11H316.472L316.056 241.079H316.041L315.625 241.048H315.61L315.194 241.018H315.179L314.763 240.987H314.748L314.332 240.956H314.317L313.901 240.925H313.886L313.47 240.895H313.455L313.039 240.864H313.024L312.608 240.833H312.593L312.162 240.818H312.147L311.716 240.787H311.7L311.285 240.756H311.269L310.838 240.725H310.823L310.392 240.71H310.376L309.961 240.679H309.945L309.514 240.664H309.499L309.068 240.648H309.053L308.637 240.633H308.622L308.191 240.602H308.175L307.744 240.587H307.729L307.298 240.571H307.283L306.852 240.556H306.836L306.405 240.541H306.39L305.959 240.525H305.943L305.512 240.51H305.497L305.066 240.494H305.051L304.62 240.479H304.604L304.173 240.464H304.158L303.727 240.448H303.711L303.28 240.433L302.849 240.417L302.419 240.402H302.403L301.972 240.387L301.541 240.371L301.11 240.356H301.095L300.664 240.34H300.648L300.217 240.325H300.202L299.771 240.31L299.34 240.294L298.909 240.279H298.478L298.047 240.263H297.616L297.185 240.248H296.754H296.323L295.892 240.233H295.446H295.015H294.568H294.122H293.675H293.229H292.798H292.352H291.905H291.474C288.303 240.233 285.133 240.279 281.977 240.356H281.839C272.48 240.602 263.214 241.187 254.04 242.111L253.855 242.126C250.776 242.449 247.713 242.788 244.665 243.173L244.835 243.234Z" fill="white"/>
<defs>
<linearGradient id="paint0_linear_2_20" x1="700.486" y1="142.104" x2="700.486" y2="694.591" gradientUnits="userSpaceOnUse">
<stop stop-color="#70A9FF"/>
<stop offset="1" stop-color="#004DC9"/>
</linearGradient>
</defs>
</svg>
