<svg width="20" height="20" viewBox="0 0 20 20" fill="none" xmlns="http://www.w3.org/2000/svg">
    <path d="M6.22894 3.80855C6.22835 3.81057 6.2279 3.81259 6.22734 3.81461C6.225 3.82362 6.22314 3.83271 6.22178 3.84182C6.22155 3.84341 6.22122 3.84494 6.22103 3.84654C6.2196 3.85757 6.21878 3.86864 6.21878 3.87968C6.21878 3.87978 6.21875 3.87987 6.21875 3.87997V7.7862C6.21875 7.88073 6.27005 7.96797 6.3526 8.01381L9.86824 9.96692C9.86856 9.96708 9.86889 9.96722 9.86921 9.96738C9.87826 9.97236 9.88764 9.97675 9.89727 9.98066C9.89887 9.98131 9.90046 9.9818 9.90206 9.98242C9.91 9.98544 9.91811 9.98808 9.92641 9.99036C9.92888 9.99104 9.93135 9.99166 9.93386 9.99228C9.94145 9.9941 9.94916 9.99557 9.95701 9.99671C9.95951 9.99707 9.96202 9.99755 9.96453 9.99785C9.97449 9.99902 9.98458 9.99977 9.99483 9.99977C10.0051 9.99977 10.0151 9.99902 10.025 9.99788C10.0278 9.99755 10.0306 9.99703 10.0334 9.99661C10.0408 9.9955 10.0481 9.99413 10.0552 9.99244C10.0582 9.99173 10.0612 9.99098 10.0641 9.99016C10.0717 9.98808 10.0791 9.98564 10.0863 9.9829C10.0885 9.98209 10.0908 9.98138 10.0929 9.98046C10.1024 9.97662 10.1116 9.97229 10.1204 9.96741C10.1207 9.96725 10.1211 9.96712 10.1214 9.96696L13.637 8.01384C13.7195 7.96801 13.7708 7.88077 13.7708 7.78624V3.88C13.7708 3.87991 13.7708 3.87981 13.7708 3.87971C13.7708 3.86868 13.77 3.85761 13.7686 3.84654C13.7684 3.84498 13.768 3.84345 13.7678 3.84188C13.7665 3.83274 13.7646 3.82366 13.7623 3.81461C13.7617 3.81259 13.7612 3.81057 13.7607 3.80858C13.7578 3.79862 13.7545 3.7887 13.7504 3.77896C13.7503 3.7788 13.7503 3.7786 13.7502 3.77844C13.7466 3.76998 13.7426 3.76164 13.738 3.75344C13.7374 3.75233 13.7367 3.75133 13.736 3.75022C13.7346 3.74778 13.733 3.74543 13.7315 3.74306C13.7274 3.73632 13.723 3.72981 13.7183 3.72356C13.7165 3.72121 13.7147 3.71887 13.7129 3.71659C13.7071 3.7095 13.7012 3.70273 13.6948 3.69635C13.6939 3.6954 13.693 3.69439 13.6921 3.69345C13.6844 3.68593 13.6762 3.67896 13.6677 3.67255C13.6663 3.67148 13.6648 3.6705 13.6633 3.66946C13.6559 3.66409 13.6483 3.65914 13.6404 3.65461C13.6392 3.65393 13.6382 3.65308 13.637 3.65243L10.1214 1.69932C10.0425 1.65557 9.94718 1.65557 9.86827 1.69932L6.35264 3.65243C6.3513 3.65318 6.35013 3.65412 6.34883 3.65491C6.34128 3.65927 6.33395 3.66402 6.32682 3.66913C6.32516 3.67034 6.3234 3.67144 6.32178 3.67268C6.31338 3.67906 6.30534 3.6859 6.29769 3.69335C6.29658 3.69442 6.29561 3.6956 6.29453 3.69667C6.28831 3.70292 6.28242 3.70956 6.27682 3.71649C6.27493 3.71884 6.27314 3.72118 6.27132 3.72359C6.26667 3.72981 6.26227 3.73629 6.25811 3.74302C6.25661 3.74543 6.25501 3.74778 6.25361 3.75022C6.25296 3.75133 6.25221 3.75233 6.25159 3.75344C6.24704 3.76164 6.243 3.77001 6.23942 3.77844C6.23936 3.7786 6.23929 3.7788 6.23923 3.77896C6.23512 3.78866 6.2318 3.79856 6.22894 3.80855ZM6.73965 4.32255L9.73445 5.98631V9.29671L6.73965 7.63305V4.32255ZM10.2553 9.29674V5.98631L13.2501 4.32255V7.63308L10.2553 9.29674ZM9.99486 2.22477L12.9741 3.88004L9.99486 5.53517L7.0154 3.87991L9.99486 2.22477Z" fill="#929AB5"/>
    <path d="M18.3312 11.3984C18.331 11.3968 18.3306 11.3952 18.3304 11.3936C18.3291 11.3845 18.3272 11.3754 18.3249 11.3664C18.3243 11.3644 18.3238 11.3624 18.3233 11.3604C18.3204 11.3504 18.3171 11.3405 18.313 11.3308C18.3129 11.3306 18.3128 11.3304 18.3128 11.3302C18.3092 11.3218 18.3052 11.3134 18.3006 11.3052C18.3 11.3041 18.2992 11.3031 18.2986 11.302C18.2972 11.2996 18.2956 11.2972 18.2941 11.2948C18.2899 11.2881 18.2855 11.2816 18.2809 11.2754C18.2791 11.273 18.2773 11.2706 18.2754 11.2683C18.2698 11.2613 18.2638 11.2547 18.2577 11.2485C18.2566 11.2474 18.2556 11.2462 18.2545 11.2451C18.2469 11.2377 18.2388 11.2309 18.2304 11.2245C18.2288 11.2232 18.2271 11.2221 18.2254 11.2209C18.2183 11.2158 18.211 11.211 18.2034 11.2067C18.2021 11.2059 18.2009 11.2049 18.1996 11.2042L14.6839 9.25107C14.605 9.20732 14.5097 9.20732 14.4308 9.25107L10.9152 11.2042C10.914 11.2048 10.913 11.2057 10.9118 11.2064C10.9039 11.2109 10.8963 11.2158 10.8888 11.2212C10.8874 11.2223 10.8859 11.2232 10.8845 11.2243C10.876 11.2307 10.8678 11.2377 10.8601 11.2452C10.8591 11.2461 10.8583 11.2471 10.8573 11.2481C10.851 11.2545 10.845 11.2612 10.8393 11.2683C10.8374 11.2706 10.8356 11.2729 10.8339 11.2753C10.8292 11.2815 10.8248 11.288 10.8206 11.2948C10.8191 11.2972 10.8175 11.2995 10.8161 11.3019C10.8155 11.3031 10.8147 11.3041 10.8141 11.3052C10.8095 11.3134 10.8055 11.3217 10.8019 11.3302C10.8019 11.3303 10.8018 11.3305 10.8017 11.3307C10.7976 11.3404 10.7943 11.3503 10.7914 11.3603C10.7909 11.3623 10.7904 11.3643 10.7898 11.3664C10.7875 11.3754 10.7856 11.3845 10.7843 11.3936C10.784 11.3952 10.7837 11.3967 10.7835 11.3983C10.7821 11.4093 10.7813 11.4204 10.7813 11.4314C10.7813 11.4315 10.7812 11.4316 10.7812 11.4317V15.338C10.7812 15.4325 10.8326 15.5197 10.9151 15.5656L14.4307 17.5187C14.4311 17.5188 14.4314 17.519 14.4317 17.5191C14.4408 17.5241 14.4501 17.5285 14.4598 17.5324C14.4614 17.5331 14.463 17.5336 14.4646 17.5342C14.4725 17.5372 14.4806 17.5398 14.4889 17.5421C14.4914 17.5428 14.4939 17.5434 14.4964 17.544C14.5039 17.5459 14.5117 17.5473 14.5195 17.5485C14.522 17.5488 14.5245 17.5493 14.527 17.5496C14.537 17.5508 14.5471 17.5515 14.5573 17.5515C14.5676 17.5515 14.5776 17.5508 14.5875 17.5496C14.5903 17.5493 14.5931 17.5488 14.5959 17.5484C14.6033 17.5473 14.6106 17.5459 14.6177 17.5442C14.6207 17.5435 14.6237 17.5427 14.6266 17.5419C14.6342 17.5398 14.6416 17.5374 14.6488 17.5347C14.651 17.5338 14.6533 17.5331 14.6554 17.5322C14.6649 17.5284 14.6741 17.5241 14.6829 17.5192C14.6832 17.519 14.6836 17.5189 14.6839 17.5187L18.1995 15.5656C18.282 15.5198 18.3333 15.4325 18.3333 15.338V11.4318C18.3333 11.4317 18.3333 11.4316 18.3333 11.4315C18.3334 11.4205 18.3326 11.4094 18.3312 11.3984ZM14.5574 9.77685L17.5366 11.4319L14.5574 13.087L11.5782 11.4319L14.5574 9.77685ZM11.3022 11.8744L14.297 13.5381V16.8485L11.3022 15.1849V11.8744ZM14.8178 16.8485V13.5381L17.8126 11.8744V15.1849L14.8178 16.8485Z" fill="#929AB5"/>
    <path d="M9.21395 11.3984C9.21375 11.3968 9.21343 11.3952 9.2132 11.3936C9.21186 11.3845 9.20998 11.3754 9.20763 11.3664C9.20711 11.3644 9.20662 11.3624 9.20604 11.3604C9.20317 11.3504 9.19988 11.3405 9.19575 11.3308C9.19569 11.3306 9.19562 11.3304 9.19556 11.3302C9.19197 11.3218 9.18794 11.3134 9.18338 11.3052C9.18276 11.3041 9.18201 11.3031 9.18136 11.302C9.17996 11.2996 9.17837 11.2972 9.17687 11.2948C9.1727 11.2881 9.16831 11.2816 9.16365 11.2754C9.16186 11.273 9.16004 11.2706 9.15815 11.2683C9.15255 11.2613 9.14663 11.2547 9.14044 11.2485C9.13937 11.2474 9.13839 11.2462 9.13729 11.2451C9.12964 11.2377 9.1216 11.2309 9.1132 11.2245C9.11157 11.2232 9.10985 11.2221 9.10819 11.2209C9.10106 11.2158 9.09373 11.211 9.08615 11.2067C9.08485 11.2059 9.08367 11.2049 9.08234 11.2042L5.56671 9.25107C5.4878 9.20732 5.39249 9.20732 5.31358 9.25107L1.79795 11.2042C1.79678 11.2048 1.79574 11.2057 1.79456 11.2064C1.78669 11.2109 1.77904 11.2158 1.77161 11.2212C1.77018 11.2223 1.76869 11.2232 1.76725 11.2243C1.75876 11.2307 1.75059 11.2377 1.74287 11.2452C1.74193 11.2461 1.74108 11.2471 1.74014 11.2481C1.73379 11.2545 1.72777 11.2612 1.72207 11.2683C1.72021 11.2706 1.71842 11.2729 1.71667 11.2753C1.71198 11.2815 1.70758 11.288 1.70342 11.2948C1.70192 11.2972 1.70036 11.2995 1.69893 11.3019C1.69827 11.3031 1.69753 11.3041 1.69691 11.3052C1.69235 11.3134 1.68831 11.3217 1.68473 11.3302C1.68467 11.3303 1.6846 11.3305 1.68454 11.3307C1.6804 11.3404 1.67712 11.3503 1.67425 11.3603C1.67367 11.3623 1.67321 11.3643 1.67266 11.3664C1.67031 11.3754 1.66846 11.3845 1.66709 11.3936C1.66686 11.3952 1.66654 11.3967 1.66634 11.3983C1.66491 11.4093 1.6641 11.4204 1.6641 11.4314C1.6641 11.4315 1.66406 11.4316 1.66406 11.4317V15.338C1.66406 15.4325 1.71536 15.5197 1.79792 15.5656L5.31355 17.5187C5.31387 17.5188 5.3142 17.519 5.31453 17.5191C5.32358 17.5241 5.33295 17.5285 5.34259 17.5324C5.34418 17.5331 5.34578 17.5336 5.34737 17.5342C5.35531 17.5372 5.36342 17.5398 5.37172 17.5421C5.37419 17.5428 5.37667 17.5434 5.37917 17.544C5.38676 17.5459 5.39447 17.5473 5.40232 17.5485C5.40483 17.5488 5.40733 17.5493 5.40984 17.5496C5.4198 17.5508 5.42989 17.5515 5.44014 17.5515C5.45037 17.5515 5.46042 17.5508 5.47035 17.5496C5.47315 17.5493 5.47595 17.5488 5.47875 17.5484C5.48614 17.5473 5.4934 17.5459 5.50056 17.5442C5.50352 17.5435 5.50649 17.5427 5.50945 17.5419C5.517 17.5398 5.52439 17.5374 5.53165 17.5347C5.53386 17.5338 5.53608 17.5331 5.53826 17.5322C5.5477 17.5284 5.55688 17.5241 5.5657 17.5192C5.56602 17.519 5.56638 17.5189 5.56667 17.5187L9.08231 15.5656C9.16486 15.5198 9.21616 15.4325 9.21616 15.338V11.4318C9.21616 11.4317 9.21613 11.4316 9.21613 11.4315C9.21619 11.4205 9.21538 11.4094 9.21395 11.3984ZM5.44018 9.77685L8.41941 11.4319L5.44018 13.087L2.46094 11.4319L5.44018 9.77685ZM2.18496 11.8744L5.17976 13.5381V16.8485L2.18496 15.1849V11.8744ZM5.70059 16.8485V13.5381L8.69539 11.8744V15.1849L5.70059 16.8485Z" fill="#929AB5"/>
    <path d="M9.8099 16.8459C9.76302 16.8954 9.73438 16.9631 9.73438 17.0308C9.73438 17.0985 9.76302 17.1663 9.8099 17.2157C9.85937 17.2626 9.92708 17.2913 9.99479 17.2913C10.0625 17.2913 10.1302 17.2626 10.1797 17.2157C10.2266 17.1663 10.2552 17.0985 10.2552 17.0308C10.2552 16.9631 10.2266 16.8954 10.1797 16.8459C10.0833 16.7496 9.90625 16.7496 9.8099 16.8459Z" fill="#929AB5"/>
</svg>
