<svg width="20" height="20" viewBox="0 0 20 20" fill="none" xmlns="http://www.w3.org/2000/svg">
    <path d="M16.5397 7.18694L10.1628 3.36079C10.1142 3.33159 10.0586 3.31616 10.002 3.31616C9.94529 3.31616 9.88969 3.33159 9.84113 3.36079L3.46417 7.18694C3.41874 7.21561 3.38111 7.25508 3.35464 7.30184C3.32817 7.34859 3.3137 7.40117 3.3125 7.45488V14.6113C3.31249 14.6652 3.32646 14.7183 3.35304 14.7652C3.37962 14.8122 3.41791 14.8514 3.46417 14.8792L9.84113 18.7053C9.88971 18.7345 9.9453 18.7499 10.002 18.7499C10.0586 18.7499 10.1142 18.7345 10.1628 18.7053L16.5397 14.8792C16.586 14.8514 16.6243 14.8122 16.6509 14.7652C16.6774 14.7183 16.6914 14.6652 16.6914 14.6113V7.45488C16.6902 7.40117 16.6757 7.34859 16.6493 7.30184C16.6228 7.25509 16.5852 7.21561 16.5397 7.18694ZM9.68945 17.8855L3.9375 14.4343V8.00681L9.68945 11.458V17.8855ZM10.002 10.9166L4.23245 7.45488L10.002 3.99312L15.7714 7.45488L10.002 10.9166ZM16.0664 14.4342L10.3145 17.8855V11.458L16.0664 8.00681V14.4342Z" fill="#929AB5" stroke="#929AB5" stroke-width="0.25"/>
    <path d="M10 2.48443C10.0829 2.48443 10.1624 2.4515 10.221 2.3929C10.2796 2.33429 10.3125 2.25481 10.3125 2.17193V1.5625C10.3125 1.47962 10.2796 1.40013 10.221 1.34153C10.1624 1.28292 10.0829 1.25 10 1.25C9.91712 1.25 9.83763 1.28292 9.77903 1.34153C9.72042 1.40013 9.6875 1.47962 9.6875 1.5625V2.17194C9.68751 2.25482 9.72043 2.3343 9.77904 2.3929C9.83764 2.4515 9.91712 2.48443 10 2.48443Z" fill="#929AB5" stroke="#929AB5" stroke-width="0.25"/>
    <path d="M2.22765 15.0545L1.58083 15.4296C1.52265 15.4649 1.47752 15.5182 1.45221 15.5814C1.42691 15.6446 1.4228 15.7143 1.44051 15.78C1.45821 15.8457 1.49678 15.9039 1.5504 15.9458C1.60403 15.9878 1.66981 16.0112 1.73786 16.0125C1.85587 16.0369 2.43298 15.6419 2.54107 15.5953C2.61108 15.5529 2.66167 15.4847 2.68196 15.4054C2.70225 15.3261 2.69062 15.242 2.64958 15.1712C2.60853 15.1004 2.54134 15.0485 2.46245 15.0267C2.38355 15.0049 2.29925 15.0149 2.22765 15.0545Z" fill="#929AB5" stroke="#929AB5" stroke-width="0.25"/>
    <path d="M18.4183 15.4293L17.7683 15.0543C17.6966 15.0147 17.6123 15.0049 17.5334 15.0268C17.4546 15.0488 17.3875 15.1008 17.3466 15.1717C17.3056 15.2426 17.2942 15.3267 17.3146 15.406C17.335 15.4853 17.3857 15.5534 17.4558 15.5956C17.5668 15.6435 18.1412 16.0355 18.2617 16.0125C18.3298 16.0112 18.3957 15.9878 18.4493 15.9458C18.5029 15.9038 18.5415 15.8455 18.5591 15.7797C18.5768 15.714 18.5726 15.6442 18.5472 15.581C18.5218 15.5178 18.4766 15.4646 18.4183 15.4293Z" fill="#929AB5" stroke="#929AB5" stroke-width="0.25"/>
</svg>
