<svg width="24" height="25" viewBox="0 0 24 25" fill="none" xmlns="http://www.w3.org/2000/svg">
    <mask id="path-1-outside-1_1516_67274" maskUnits="userSpaceOnUse" x="2.23047" y="-0.5" width="19" height="26" fill="black">
        <rect fill="currentColor" x="2.23047" y="-0.5" width="19" height="26"/>
        <path d="M18.0309 1.40614C16.4127 0.821797 14.2708 0.5 11.9997 0.5C9.72856 0.5 7.58666 0.821797 5.96848 1.40614C4.20284 2.04369 3.23047 2.95123 3.23047 3.96153V21.0385C3.23047 22.0488 4.20284 22.9563 5.96848 23.5939C7.58666 24.1782 9.72856 24.5 11.9997 24.5C14.2708 24.5 16.4127 24.1782 18.0309 23.5939C19.7966 22.9563 20.7689 22.0488 20.7689 21.0385V3.96153C20.7689 2.95123 19.7966 2.04369 18.0309 1.40614ZM6.28203 2.27436C7.80219 1.72541 9.83272 1.42311 11.9997 1.42311C14.1667 1.42311 16.1972 1.72541 17.7174 2.27436C19.0502 2.75567 19.8459 3.38637 19.8459 3.96158C19.8459 4.53673 19.0502 5.16748 17.7174 5.6488C16.1972 6.1977 14.1667 6.5 11.9997 6.5C9.83272 6.5 7.80219 6.1977 6.28203 5.64875C4.94923 5.16744 4.15353 4.53669 4.15353 3.96153C4.15353 3.38637 4.94923 2.75563 6.28203 2.27436ZM4.15353 7.87442C4.67173 8.28486 5.39994 8.64734 6.3193 8.94448C6.36645 8.95977 6.41427 8.96698 6.46133 8.96698C6.65614 8.96698 6.83731 8.84258 6.90045 8.64725C6.97883 8.40472 6.8457 8.14456 6.60322 8.06619C5.0922 7.57784 4.15358 6.88925 4.15358 6.26923V5.56475C4.16787 5.57609 4.18278 5.58734 4.19736 5.59859C4.20823 5.60698 4.21892 5.61542 4.22998 5.62377C4.2567 5.64397 4.28408 5.66403 4.31183 5.684C4.31731 5.68798 4.32256 5.69197 4.32814 5.69591C4.36156 5.71972 4.39578 5.7433 4.43066 5.76673C4.44106 5.77372 4.45175 5.78056 4.46225 5.7875C4.48719 5.804 4.51222 5.82036 4.53786 5.83667C4.55155 5.84534 4.56552 5.85397 4.57939 5.86259C4.60269 5.87708 4.62617 5.89152 4.65003 5.90591C4.66494 5.91486 4.67994 5.92377 4.69508 5.93263C4.71913 5.94673 4.74345 5.96084 4.76806 5.97477C4.78316 5.98334 4.79816 5.99188 4.81348 6.00041C4.84016 6.01527 4.86725 6.02998 4.89458 6.04461C4.90817 6.05197 4.92162 6.05933 4.93541 6.06659C4.97277 6.08628 5.01073 6.10588 5.04922 6.12523C5.0533 6.12725 5.05719 6.12941 5.06127 6.13142C5.10406 6.15284 5.14761 6.17403 5.19177 6.19508C5.20494 6.20136 5.21844 6.2075 5.23175 6.21373C5.2632 6.22845 5.29475 6.24312 5.32686 6.25761C5.34341 6.26511 5.36023 6.27252 5.37697 6.27997C5.40678 6.29319 5.43678 6.30631 5.46716 6.31939C5.48478 6.32694 5.5025 6.33448 5.52031 6.34198C5.55116 6.35497 5.58233 6.36781 5.61378 6.38066C5.63112 6.38773 5.64847 6.39481 5.66605 6.40184C5.70083 6.41577 5.73622 6.42955 5.7717 6.44323C5.78609 6.44877 5.8003 6.45439 5.81483 6.45992C5.86541 6.47919 5.9165 6.49817 5.96848 6.51697C7.1315 6.93692 8.56513 7.22127 10.1228 7.34802C10.7324 7.39756 11.3609 7.42306 11.9997 7.42306C12.6385 7.42306 13.267 7.39756 13.8765 7.34802C15.4342 7.22127 16.8679 6.93692 18.0309 6.51697C18.0829 6.49822 18.134 6.47919 18.1845 6.45992C18.1991 6.45439 18.2133 6.44881 18.2277 6.44323C18.2632 6.42955 18.2985 6.41577 18.3334 6.40184C18.3509 6.39481 18.3682 6.38773 18.3856 6.38066C18.417 6.36786 18.4482 6.35502 18.4791 6.34198C18.4969 6.33448 18.5147 6.32694 18.5322 6.31939C18.5626 6.30636 18.5927 6.29323 18.6224 6.27997C18.6392 6.27252 18.656 6.26511 18.6725 6.25761C18.7047 6.24312 18.7362 6.22845 18.7677 6.21373C18.781 6.2075 18.7945 6.20136 18.8076 6.19508C18.8518 6.17408 18.8954 6.15284 18.9381 6.13142C18.9422 6.12941 18.9461 6.12725 18.9502 6.12523C18.9887 6.10583 19.0266 6.08628 19.064 6.06659C19.0778 6.05928 19.0913 6.05192 19.1049 6.04456C19.1321 6.02994 19.1592 6.01522 19.1858 6.00041C19.2012 5.99188 19.2162 5.98325 19.2314 5.97467C19.256 5.96075 19.2803 5.94669 19.3043 5.93258C19.3194 5.92367 19.3345 5.91477 19.3493 5.90581C19.3732 5.89147 19.3967 5.87703 19.42 5.8625C19.4338 5.85388 19.4479 5.84525 19.4615 5.83658C19.4871 5.82027 19.5122 5.80391 19.5371 5.78741C19.5476 5.78047 19.5583 5.77363 19.5687 5.76664C19.6036 5.7432 19.6378 5.71962 19.6712 5.69581C19.6767 5.69187 19.682 5.68789 19.6875 5.68391C19.7153 5.66398 19.7427 5.64388 19.7694 5.62367C19.7804 5.61533 19.7911 5.60689 19.802 5.5985C19.8166 5.58734 19.8315 5.57609 19.8458 5.56475V9.94986C19.8458 10.525 19.0501 11.1558 17.7173 11.6371C16.1972 12.186 14.1666 12.4883 11.9997 12.4883C9.83267 12.4883 7.80214 12.186 6.28198 11.6371C4.94919 11.1558 4.15348 10.5251 4.15348 9.94986L4.15353 7.87442ZM4.15353 11.5525C4.60442 11.9107 5.2137 12.2327 5.96848 12.5052C7.58666 13.0896 9.72856 13.4114 11.9997 13.4114C14.2708 13.4114 16.4127 13.0896 18.0309 12.5052C18.7857 12.2327 19.395 11.9106 19.8459 11.5525V15.4883C19.8459 16.0635 19.0502 16.6942 17.7174 17.1755C16.1972 17.7245 14.1667 18.0268 11.9997 18.0268C9.83272 18.0268 7.80219 17.7245 6.28203 17.1755C4.94923 16.6942 4.15353 16.0635 4.15353 15.4883V11.5525ZM19.8459 21.0385C19.8459 21.6136 19.0502 22.2444 17.7174 22.7257C16.1972 23.2746 14.1667 23.5769 11.9997 23.5769C9.83272 23.5769 7.80219 23.2746 6.28203 22.7257C4.94923 22.2444 4.15353 21.6137 4.15353 21.0385V17.091C4.60442 17.4492 5.2137 17.7711 5.96848 18.0437C7.58666 18.6281 9.72856 18.9499 11.9997 18.9499C14.2708 18.9499 16.4127 18.6281 18.0309 18.0437C18.7857 17.7711 19.395 17.4491 19.8459 17.091V17.8077C19.8459 18.4277 18.9072 19.1163 17.3963 19.6047C17.1537 19.683 17.0206 19.9432 17.099 20.1857C17.1622 20.3811 17.3433 20.5055 17.5382 20.5055C17.5852 20.5055 17.633 20.4982 17.6802 20.4829C18.5996 20.1858 19.3277 19.8233 19.8459 19.4128V21.0385Z"/>
    </mask>
    <path d="M18.0309 1.40614C16.4127 0.821797 14.2708 0.5 11.9997 0.5C9.72856 0.5 7.58666 0.821797 5.96848 1.40614C4.20284 2.04369 3.23047 2.95123 3.23047 3.96153V21.0385C3.23047 22.0488 4.20284 22.9563 5.96848 23.5939C7.58666 24.1782 9.72856 24.5 11.9997 24.5C14.2708 24.5 16.4127 24.1782 18.0309 23.5939C19.7966 22.9563 20.7689 22.0488 20.7689 21.0385V3.96153C20.7689 2.95123 19.7966 2.04369 18.0309 1.40614ZM6.28203 2.27436C7.80219 1.72541 9.83272 1.42311 11.9997 1.42311C14.1667 1.42311 16.1972 1.72541 17.7174 2.27436C19.0502 2.75567 19.8459 3.38637 19.8459 3.96158C19.8459 4.53673 19.0502 5.16748 17.7174 5.6488C16.1972 6.1977 14.1667 6.5 11.9997 6.5C9.83272 6.5 7.80219 6.1977 6.28203 5.64875C4.94923 5.16744 4.15353 4.53669 4.15353 3.96153C4.15353 3.38637 4.94923 2.75563 6.28203 2.27436ZM4.15353 7.87442C4.67173 8.28486 5.39994 8.64734 6.3193 8.94448C6.36645 8.95977 6.41427 8.96698 6.46133 8.96698C6.65614 8.96698 6.83731 8.84258 6.90045 8.64725C6.97883 8.40472 6.8457 8.14456 6.60322 8.06619C5.0922 7.57784 4.15358 6.88925 4.15358 6.26923V5.56475C4.16787 5.57609 4.18278 5.58734 4.19736 5.59859C4.20823 5.60698 4.21892 5.61542 4.22998 5.62377C4.2567 5.64397 4.28408 5.66403 4.31183 5.684C4.31731 5.68798 4.32256 5.69197 4.32814 5.69591C4.36156 5.71972 4.39578 5.7433 4.43066 5.76673C4.44106 5.77372 4.45175 5.78056 4.46225 5.7875C4.48719 5.804 4.51222 5.82036 4.53786 5.83667C4.55155 5.84534 4.56552 5.85397 4.57939 5.86259C4.60269 5.87708 4.62617 5.89152 4.65003 5.90591C4.66494 5.91486 4.67994 5.92377 4.69508 5.93263C4.71913 5.94673 4.74345 5.96084 4.76806 5.97477C4.78316 5.98334 4.79816 5.99188 4.81348 6.00041C4.84016 6.01527 4.86725 6.02998 4.89458 6.04461C4.90817 6.05197 4.92162 6.05933 4.93541 6.06659C4.97277 6.08628 5.01073 6.10588 5.04922 6.12523C5.0533 6.12725 5.05719 6.12941 5.06127 6.13142C5.10406 6.15284 5.14761 6.17403 5.19177 6.19508C5.20494 6.20136 5.21844 6.2075 5.23175 6.21373C5.2632 6.22845 5.29475 6.24312 5.32686 6.25761C5.34341 6.26511 5.36023 6.27252 5.37697 6.27997C5.40678 6.29319 5.43678 6.30631 5.46716 6.31939C5.48478 6.32694 5.5025 6.33448 5.52031 6.34198C5.55116 6.35497 5.58233 6.36781 5.61378 6.38066C5.63112 6.38773 5.64847 6.39481 5.66605 6.40184C5.70083 6.41577 5.73622 6.42955 5.7717 6.44323C5.78609 6.44877 5.8003 6.45439 5.81483 6.45992C5.86541 6.47919 5.9165 6.49817 5.96848 6.51697C7.1315 6.93692 8.56513 7.22127 10.1228 7.34802C10.7324 7.39756 11.3609 7.42306 11.9997 7.42306C12.6385 7.42306 13.267 7.39756 13.8765 7.34802C15.4342 7.22127 16.8679 6.93692 18.0309 6.51697C18.0829 6.49822 18.134 6.47919 18.1845 6.45992C18.1991 6.45439 18.2133 6.44881 18.2277 6.44323C18.2632 6.42955 18.2985 6.41577 18.3334 6.40184C18.3509 6.39481 18.3682 6.38773 18.3856 6.38066C18.417 6.36786 18.4482 6.35502 18.4791 6.34198C18.4969 6.33448 18.5147 6.32694 18.5322 6.31939C18.5626 6.30636 18.5927 6.29323 18.6224 6.27997C18.6392 6.27252 18.656 6.26511 18.6725 6.25761C18.7047 6.24312 18.7362 6.22845 18.7677 6.21373C18.781 6.2075 18.7945 6.20136 18.8076 6.19508C18.8518 6.17408 18.8954 6.15284 18.9381 6.13142C18.9422 6.12941 18.9461 6.12725 18.9502 6.12523C18.9887 6.10583 19.0266 6.08628 19.064 6.06659C19.0778 6.05928 19.0913 6.05192 19.1049 6.04456C19.1321 6.02994 19.1592 6.01522 19.1858 6.00041C19.2012 5.99188 19.2162 5.98325 19.2314 5.97467C19.256 5.96075 19.2803 5.94669 19.3043 5.93258C19.3194 5.92367 19.3345 5.91477 19.3493 5.90581C19.3732 5.89147 19.3967 5.87703 19.42 5.8625C19.4338 5.85388 19.4479 5.84525 19.4615 5.83658C19.4871 5.82027 19.5122 5.80391 19.5371 5.78741C19.5476 5.78047 19.5583 5.77363 19.5687 5.76664C19.6036 5.7432 19.6378 5.71962 19.6712 5.69581C19.6767 5.69187 19.682 5.68789 19.6875 5.68391C19.7153 5.66398 19.7427 5.64388 19.7694 5.62367C19.7804 5.61533 19.7911 5.60689 19.802 5.5985C19.8166 5.58734 19.8315 5.57609 19.8458 5.56475V9.94986C19.8458 10.525 19.0501 11.1558 17.7173 11.6371C16.1972 12.186 14.1666 12.4883 11.9997 12.4883C9.83267 12.4883 7.80214 12.186 6.28198 11.6371C4.94919 11.1558 4.15348 10.5251 4.15348 9.94986L4.15353 7.87442ZM4.15353 11.5525C4.60442 11.9107 5.2137 12.2327 5.96848 12.5052C7.58666 13.0896 9.72856 13.4114 11.9997 13.4114C14.2708 13.4114 16.4127 13.0896 18.0309 12.5052C18.7857 12.2327 19.395 11.9106 19.8459 11.5525V15.4883C19.8459 16.0635 19.0502 16.6942 17.7174 17.1755C16.1972 17.7245 14.1667 18.0268 11.9997 18.0268C9.83272 18.0268 7.80219 17.7245 6.28203 17.1755C4.94923 16.6942 4.15353 16.0635 4.15353 15.4883V11.5525ZM19.8459 21.0385C19.8459 21.6136 19.0502 22.2444 17.7174 22.7257C16.1972 23.2746 14.1667 23.5769 11.9997 23.5769C9.83272 23.5769 7.80219 23.2746 6.28203 22.7257C4.94923 22.2444 4.15353 21.6137 4.15353 21.0385V17.091C4.60442 17.4492 5.2137 17.7711 5.96848 18.0437C7.58666 18.6281 9.72856 18.9499 11.9997 18.9499C14.2708 18.9499 16.4127 18.6281 18.0309 18.0437C18.7857 17.7711 19.395 17.4491 19.8459 17.091V17.8077C19.8459 18.4277 18.9072 19.1163 17.3963 19.6047C17.1537 19.683 17.0206 19.9432 17.099 20.1857C17.1622 20.3811 17.3433 20.5055 17.5382 20.5055C17.5852 20.5055 17.633 20.4982 17.6802 20.4829C18.5996 20.1858 19.3277 19.8233 19.8459 19.4128V21.0385Z" fill="currentColor"/>
    <path d="M18.0309 1.40614C16.4127 0.821797 14.2708 0.5 11.9997 0.5C9.72856 0.5 7.58666 0.821797 5.96848 1.40614C4.20284 2.04369 3.23047 2.95123 3.23047 3.96153V21.0385C3.23047 22.0488 4.20284 22.9563 5.96848 23.5939C7.58666 24.1782 9.72856 24.5 11.9997 24.5C14.2708 24.5 16.4127 24.1782 18.0309 23.5939C19.7966 22.9563 20.7689 22.0488 20.7689 21.0385V3.96153C20.7689 2.95123 19.7966 2.04369 18.0309 1.40614ZM6.28203 2.27436C7.80219 1.72541 9.83272 1.42311 11.9997 1.42311C14.1667 1.42311 16.1972 1.72541 17.7174 2.27436C19.0502 2.75567 19.8459 3.38637 19.8459 3.96158C19.8459 4.53673 19.0502 5.16748 17.7174 5.6488C16.1972 6.1977 14.1667 6.5 11.9997 6.5C9.83272 6.5 7.80219 6.1977 6.28203 5.64875C4.94923 5.16744 4.15353 4.53669 4.15353 3.96153C4.15353 3.38637 4.94923 2.75563 6.28203 2.27436ZM4.15353 7.87442C4.67173 8.28486 5.39994 8.64734 6.3193 8.94448C6.36645 8.95977 6.41427 8.96698 6.46133 8.96698C6.65614 8.96698 6.83731 8.84258 6.90045 8.64725C6.97883 8.40472 6.8457 8.14456 6.60322 8.06619C5.0922 7.57784 4.15358 6.88925 4.15358 6.26923V5.56475C4.16787 5.57609 4.18278 5.58734 4.19736 5.59859C4.20823 5.60698 4.21892 5.61542 4.22998 5.62377C4.2567 5.64397 4.28408 5.66403 4.31183 5.684C4.31731 5.68798 4.32256 5.69197 4.32814 5.69591C4.36156 5.71972 4.39578 5.7433 4.43066 5.76673C4.44106 5.77372 4.45175 5.78056 4.46225 5.7875C4.48719 5.804 4.51222 5.82036 4.53786 5.83667C4.55155 5.84534 4.56552 5.85397 4.57939 5.86259C4.60269 5.87708 4.62617 5.89152 4.65003 5.90591C4.66494 5.91486 4.67994 5.92377 4.69508 5.93263C4.71913 5.94673 4.74345 5.96084 4.76806 5.97477C4.78316 5.98334 4.79816 5.99188 4.81348 6.00041C4.84016 6.01527 4.86725 6.02998 4.89458 6.04461C4.90817 6.05197 4.92162 6.05933 4.93541 6.06659C4.97277 6.08628 5.01073 6.10588 5.04922 6.12523C5.0533 6.12725 5.05719 6.12941 5.06127 6.13142C5.10406 6.15284 5.14761 6.17403 5.19177 6.19508C5.20494 6.20136 5.21844 6.2075 5.23175 6.21373C5.2632 6.22845 5.29475 6.24312 5.32686 6.25761C5.34341 6.26511 5.36023 6.27252 5.37697 6.27997C5.40678 6.29319 5.43678 6.30631 5.46716 6.31939C5.48478 6.32694 5.5025 6.33448 5.52031 6.34198C5.55116 6.35497 5.58233 6.36781 5.61378 6.38066C5.63112 6.38773 5.64847 6.39481 5.66605 6.40184C5.70083 6.41577 5.73622 6.42955 5.7717 6.44323C5.78609 6.44877 5.8003 6.45439 5.81483 6.45992C5.86541 6.47919 5.9165 6.49817 5.96848 6.51697C7.1315 6.93692 8.56513 7.22127 10.1228 7.34802C10.7324 7.39756 11.3609 7.42306 11.9997 7.42306C12.6385 7.42306 13.267 7.39756 13.8765 7.34802C15.4342 7.22127 16.8679 6.93692 18.0309 6.51697C18.0829 6.49822 18.134 6.47919 18.1845 6.45992C18.1991 6.45439 18.2133 6.44881 18.2277 6.44323C18.2632 6.42955 18.2985 6.41577 18.3334 6.40184C18.3509 6.39481 18.3682 6.38773 18.3856 6.38066C18.417 6.36786 18.4482 6.35502 18.4791 6.34198C18.4969 6.33448 18.5147 6.32694 18.5322 6.31939C18.5626 6.30636 18.5927 6.29323 18.6224 6.27997C18.6392 6.27252 18.656 6.26511 18.6725 6.25761C18.7047 6.24312 18.7362 6.22845 18.7677 6.21373C18.781 6.2075 18.7945 6.20136 18.8076 6.19508C18.8518 6.17408 18.8954 6.15284 18.9381 6.13142C18.9422 6.12941 18.9461 6.12725 18.9502 6.12523C18.9887 6.10583 19.0266 6.08628 19.064 6.06659C19.0778 6.05928 19.0913 6.05192 19.1049 6.04456C19.1321 6.02994 19.1592 6.01522 19.1858 6.00041C19.2012 5.99188 19.2162 5.98325 19.2314 5.97467C19.256 5.96075 19.2803 5.94669 19.3043 5.93258C19.3194 5.92367 19.3345 5.91477 19.3493 5.90581C19.3732 5.89147 19.3967 5.87703 19.42 5.8625C19.4338 5.85388 19.4479 5.84525 19.4615 5.83658C19.4871 5.82027 19.5122 5.80391 19.5371 5.78741C19.5476 5.78047 19.5583 5.77363 19.5687 5.76664C19.6036 5.7432 19.6378 5.71962 19.6712 5.69581C19.6767 5.69187 19.682 5.68789 19.6875 5.68391C19.7153 5.66398 19.7427 5.64388 19.7694 5.62367C19.7804 5.61533 19.7911 5.60689 19.802 5.5985C19.8166 5.58734 19.8315 5.57609 19.8458 5.56475V9.94986C19.8458 10.525 19.0501 11.1558 17.7173 11.6371C16.1972 12.186 14.1666 12.4883 11.9997 12.4883C9.83267 12.4883 7.80214 12.186 6.28198 11.6371C4.94919 11.1558 4.15348 10.5251 4.15348 9.94986L4.15353 7.87442ZM4.15353 11.5525C4.60442 11.9107 5.2137 12.2327 5.96848 12.5052C7.58666 13.0896 9.72856 13.4114 11.9997 13.4114C14.2708 13.4114 16.4127 13.0896 18.0309 12.5052C18.7857 12.2327 19.395 11.9106 19.8459 11.5525V15.4883C19.8459 16.0635 19.0502 16.6942 17.7174 17.1755C16.1972 17.7245 14.1667 18.0268 11.9997 18.0268C9.83272 18.0268 7.80219 17.7245 6.28203 17.1755C4.94923 16.6942 4.15353 16.0635 4.15353 15.4883V11.5525ZM19.8459 21.0385C19.8459 21.6136 19.0502 22.2444 17.7174 22.7257C16.1972 23.2746 14.1667 23.5769 11.9997 23.5769C9.83272 23.5769 7.80219 23.2746 6.28203 22.7257C4.94923 22.2444 4.15353 21.6137 4.15353 21.0385V17.091C4.60442 17.4492 5.2137 17.7711 5.96848 18.0437C7.58666 18.6281 9.72856 18.9499 11.9997 18.9499C14.2708 18.9499 16.4127 18.6281 18.0309 18.0437C18.7857 17.7711 19.395 17.4491 19.8459 17.091V17.8077C19.8459 18.4277 18.9072 19.1163 17.3963 19.6047C17.1537 19.683 17.0206 19.9432 17.099 20.1857C17.1622 20.3811 17.3433 20.5055 17.5382 20.5055C17.5852 20.5055 17.633 20.4982 17.6802 20.4829C18.5996 20.1858 19.3277 19.8233 19.8459 19.4128V21.0385Z" stroke="currentColor" stroke-width="0.4" mask="url(#path-1-outside-1_1516_67274)"/>
    <path d="M8.24323 9.25786C8.26918 9.23196 8.29267 9.20338 8.31331 9.17265L8.31355 9.17229C8.33414 9.14136 8.35098 9.10873 8.36472 9.07525C8.37843 9.04229 8.38966 9.00711 8.39706 8.97068C8.40452 8.93398 8.40783 8.8968 8.40783 8.86077C8.40783 8.82463 8.40445 8.78752 8.39709 8.75101C8.38969 8.7143 8.37833 8.67898 8.36462 8.64605L8.2723 8.68448L8.36484 8.64659C8.35108 8.61296 8.33418 8.5802 8.3135 8.54918L8.31338 8.549L7.394 8.95077M8.24323 9.25786L8.17259 9.18707L8.2433 9.25778C8.24328 9.25781 8.24325 9.25783 8.24323 9.25786ZM8.24323 9.25786C8.21748 9.2836 8.18865 9.30742 8.15711 9.32803L8.10242 9.2443L8.15793 9.32748C8.12756 9.34775 8.09507 9.3651 8.06144 9.37909L8.0609 9.37932L8.0609 9.37932C8.02808 9.39275 7.99269 9.40417 7.95542 9.41122C7.91995 9.41837 7.88301 9.4223 7.84625 9.4223C7.69833 9.4223 7.5538 9.36233 7.44924 9.25778C7.42347 9.23201 7.39962 9.20316 7.379 9.17158L7.46272 9.1169L7.37951 9.17237C7.35934 9.1421 7.34183 9.10946 7.3277 9.07495L7.42025 9.03707L7.32793 9.0755C7.31431 9.04278 7.30286 9.00724 7.29585 8.96994M7.29585 8.96994C7.29591 8.97024 7.29597 8.97054 7.29603 8.97083L7.394 8.95077M7.29585 8.96994C7.29579 8.96964 7.29574 8.96934 7.29568 8.96903L7.394 8.95077M7.29585 8.96994C7.28862 8.93432 7.28477 8.89744 7.28477 8.86077C7.28477 8.8241 7.28862 8.78722 7.29585 8.7516M7.394 8.95077C7.38795 8.92124 7.38477 8.89077 7.38477 8.86077C7.38477 8.83077 7.38795 8.8003 7.394 8.77077M7.29585 8.7516C7.29579 8.7519 7.29574 8.75221 7.29568 8.75251L7.394 8.77077M7.29585 8.7516C7.30286 8.7143 7.31431 8.67876 7.32793 8.64605L7.42025 8.68448M7.29585 8.7516C7.29591 8.7513 7.29597 8.75101 7.29603 8.75071L7.394 8.77077M7.394 8.77077L7.42025 8.68448M7.42025 8.68448L7.32772 8.64654C7.34187 8.61203 7.35941 8.57947 7.37939 8.54936L7.46272 8.60465L7.379 8.54996C7.39962 8.51839 7.42347 8.48953 7.44924 8.46376C7.47509 8.43792 7.50368 8.4144 7.53442 8.39376L7.5347 8.39357L7.5347 8.39357C7.56568 8.37291 7.59839 8.35601 7.63207 8.34222L7.66995 8.43477L7.63152 8.34245C7.66432 8.3288 7.69988 8.31735 7.73716 8.31031C7.73739 8.31027 7.73761 8.31023 7.73784 8.31018L7.75625 8.40848C7.81578 8.39648 7.87719 8.39648 7.93625 8.40848L7.42025 8.68448ZM8.0609 8.34222C8.02808 8.32879 7.99269 8.31737 7.95542 8.31033L8.2433 8.46376C8.24328 8.46374 8.24325 8.46371 8.24323 8.46369C8.21739 8.43786 8.1889 8.41445 8.15828 8.39383L8.15828 8.39383L8.15782 8.39352C8.12685 8.37291 8.09427 8.35611 8.06144 8.34245L8.06145 8.34245L8.0609 8.34222Z" fill="currentColor" stroke="currentColor" stroke-width="0.2"/>
    <path d="M16.6725 20.1846L16.6725 20.1846C16.6858 20.2172 16.6973 20.2527 16.7044 20.2901C16.7115 20.3256 16.7154 20.3624 16.7154 20.3992C16.7154 20.436 16.7115 20.4729 16.7044 20.5084M16.6725 20.1846L16.244 20.8515C16.2144 20.8575 16.1839 20.8607 16.154 20.8607C16.124 20.8607 16.0935 20.8575 16.064 20.8515C16.0344 20.846 16.0054 20.8367 15.9772 20.8252C15.9494 20.8137 15.9227 20.7993 15.8978 20.7827M16.6725 20.1846L16.6722 20.184M16.6725 20.1846L16.6722 20.184M16.7044 20.5084C16.6973 20.5456 16.6859 20.5812 16.6722 20.6139L16.5799 20.5755M16.7044 20.5084C16.7043 20.5086 16.7043 20.5089 16.7042 20.5091L16.6062 20.4892M16.7044 20.5084C16.7044 20.5081 16.7045 20.5079 16.7045 20.5076L16.6062 20.4892M16.5799 20.5755L16.6724 20.6134C16.6584 20.6477 16.641 20.6802 16.6209 20.7104C16.6004 20.7418 16.5767 20.7705 16.5508 20.7963M16.5799 20.5755C16.5684 20.6036 16.554 20.6304 16.5374 20.6553L16.6062 20.4892M16.5799 20.5755C16.5914 20.5478 16.6007 20.5187 16.6062 20.4892M16.5508 20.7963L16.4802 20.7255L16.5509 20.7962C16.5509 20.7962 16.5509 20.7963 16.5508 20.7963ZM16.5508 20.7963C16.5251 20.822 16.4963 20.8459 16.4647 20.8665L16.41 20.7827L16.4656 20.8659C16.4352 20.8862 16.4025 20.9037 16.3681 20.9178L16.3302 20.8252L16.3687 20.9175C16.3359 20.9312 16.3004 20.9426 16.2631 20.9497C16.2277 20.9568 16.1907 20.9607 16.154 20.9607C16.1171 20.9607 16.0803 20.9568 16.0448 20.9497C16.0075 20.9426 15.9721 20.9312 15.9393 20.9178L15.9388 20.9176L15.9388 20.9176C15.9051 20.9035 15.8728 20.8862 15.8427 20.8662M15.8427 20.8662C15.8428 20.8663 15.843 20.8664 15.8431 20.8664L15.8978 20.7827M15.8427 20.8662C15.8426 20.8661 15.8425 20.8661 15.8424 20.866L15.8978 20.7827M15.8427 20.8662C15.8113 20.8457 15.7826 20.822 15.7569 20.7962C15.7313 20.7707 15.7077 20.7422 15.6872 20.7109M15.8978 20.7827C15.8723 20.7661 15.8488 20.7467 15.8276 20.7255C15.8063 20.7043 15.7869 20.6807 15.7703 20.6553M15.7703 20.6553L15.6879 20.7119C15.6876 20.7116 15.6874 20.7113 15.6872 20.7109M15.7703 20.6553C15.7533 20.6304 15.7394 20.6037 15.7279 20.5755M15.7703 20.6553L15.6866 20.71C15.6868 20.7103 15.687 20.7106 15.6872 20.7109M15.6872 20.7109C15.6658 20.6796 15.649 20.6467 15.6353 20.6134L15.7279 20.5755M15.7279 20.5755L15.6355 20.6139C15.6219 20.5812 15.6105 20.5457 15.6035 20.5084M15.7279 20.5755L15.6035 20.5084M15.6035 20.5084C15.6035 20.5087 15.6036 20.509 15.6036 20.5093L15.7016 20.4892M15.6035 20.5084C15.6034 20.5081 15.6034 20.5078 15.6033 20.5075L15.7016 20.4892M15.6035 20.5084C15.5962 20.4728 15.5924 20.4359 15.5924 20.3992C15.5924 20.3625 15.5962 20.3257 15.6035 20.29M15.6035 20.5084L15.7016 20.3092M15.7016 20.4892C15.6956 20.4597 15.6924 20.4292 15.6924 20.3992C15.6924 20.3692 15.6956 20.3387 15.7016 20.3092M15.7016 20.4892V20.3092M15.7016 20.3092L15.6033 20.2909C15.6034 20.2906 15.6034 20.2903 15.6035 20.29M15.7016 20.3092L15.6036 20.2891C15.6036 20.2894 15.6035 20.2897 15.6035 20.29M15.7016 20.3092C15.7071 20.2797 15.7163 20.2506 15.7279 20.2224C15.7394 20.1947 15.7533 20.168 15.7703 20.143M15.6035 20.29C15.6105 20.2527 15.6219 20.2173 15.6353 20.1846L15.6355 20.184L15.6355 20.184C15.6491 20.1515 15.6659 20.1187 15.6872 20.0874M15.6872 20.0874C15.6871 20.0877 15.6869 20.088 15.6867 20.0882L15.7703 20.143M15.6872 20.0874C15.6874 20.0871 15.6876 20.0868 15.6878 20.0866L15.7703 20.143M15.6872 20.0874C15.7077 20.0563 15.7313 20.0278 15.7569 20.0022C15.7827 19.9763 15.8113 19.9528 15.842 19.9321L15.8424 19.9319L15.8424 19.9319C15.8733 19.9113 15.9059 19.8945 15.9388 19.8808L15.9393 19.8806L15.9393 19.8806C15.9721 19.8672 16.0075 19.8558 16.0448 19.8487C16.045 19.8487 16.0453 19.8486 16.0456 19.8486L16.064 19.9469C16.123 19.9349 16.1844 19.9349 16.244 19.9469L15.8978 20.0152C15.8724 20.0322 15.8488 20.0516 15.8276 20.0729C15.8063 20.0941 15.787 20.1176 15.7703 20.143M16.6722 20.184C16.6582 20.1504 16.6409 20.1179 16.6206 20.0875M16.6722 20.184L16.6206 20.0875M16.6206 20.0875L16.5374 20.143M16.6206 20.0875L16.5374 20.143M16.5374 20.143L16.6212 20.0884C16.6006 20.0569 16.5768 20.028 16.5509 20.0021L16.5374 20.143ZM16.3684 19.8807C16.3357 19.8671 16.3003 19.8557 16.2631 19.8487L16.5508 20.0021C16.525 19.9763 16.4965 19.9528 16.4659 19.9322L16.4659 19.9322L16.4654 19.9319C16.4345 19.9113 16.4019 19.8945 16.3684 19.8807Z" fill="currentColor" stroke="currentColor" stroke-width="0.2"/>
</svg>
