<svg width="20" height="20" viewBox="0 0 20 20" fill="none" xmlns="http://www.w3.org/2000/svg">
    <g clip-path="url(#clip0_2242_143314)">
        <path d="M16.2474 20H3.7474C2.59906 20 1.66406 19.065 1.66406 17.9167V2.08333C1.66406 0.935 2.59906 0 3.7474 0H16.2474C17.3957 0 18.3307 0.935 18.3307 2.08333V17.9167C18.3307 19.065 17.3957 20 16.2474 20ZM3.7474 0.833333C3.05823 0.833333 2.4974 1.39417 2.4974 2.08333V17.9167C2.4974 18.6058 3.05823 19.1667 3.7474 19.1667H16.2474C16.9366 19.1667 17.4974 18.6058 17.4974 17.9167V2.08333C17.4974 1.39417 16.9366 0.833333 16.2474 0.833333H3.7474Z" fill="currentColor" stroke="currentColor" stroke-width="0.166667"/>
        <path d="M9.58073 8.33341C9.35073 8.33341 9.16406 8.14675 9.16406 7.91675V7.50008H4.9974V7.91675C4.9974 8.14675 4.81073 8.33341 4.58073 8.33341C4.35073 8.33341 4.16406 8.14675 4.16406 7.91675V7.08341C4.16406 6.85341 4.35073 6.66675 4.58073 6.66675H9.58073C9.81073 6.66675 9.9974 6.85341 9.9974 7.08341V7.91675C9.9974 8.14675 9.81073 8.33341 9.58073 8.33341Z" fill="currentColor" stroke="currentColor" stroke-width="0.166667"/>
        <path d="M7.08073 12.5001C6.85073 12.5001 6.66406 12.3134 6.66406 12.0834V7.08341C6.66406 6.85341 6.85073 6.66675 7.08073 6.66675C7.31073 6.66675 7.4974 6.85341 7.4974 7.08341V12.0834C7.4974 12.3134 7.31073 12.5001 7.08073 12.5001Z" fill="currentColor" stroke="currentColor" stroke-width="0.166667"/>
        <path d="M7.91927 12.5001H6.2526C6.0226 12.5001 5.83594 12.3134 5.83594 12.0834C5.83594 11.8534 6.0226 11.6667 6.2526 11.6667H7.91927C8.14927 11.6667 8.33594 11.8534 8.33594 12.0834C8.33594 12.3134 8.14927 12.5001 7.91927 12.5001Z" fill="currentColor" stroke="currentColor" stroke-width="0.166667"/>
        <path d="M15.4141 7.50008H12.0807C11.8507 7.50008 11.6641 7.31341 11.6641 7.08341C11.6641 6.85341 11.8507 6.66675 12.0807 6.66675H15.4141C15.6441 6.66675 15.8307 6.85341 15.8307 7.08341C15.8307 7.31341 15.6441 7.50008 15.4141 7.50008Z" fill="currentColor" stroke="currentColor" stroke-width="0.166667"/>
        <path d="M15.4141 10.0001H12.0807C11.8507 10.0001 11.6641 9.81341 11.6641 9.58341C11.6641 9.35341 11.8507 9.16675 12.0807 9.16675H15.4141C15.6441 9.16675 15.8307 9.35341 15.8307 9.58341C15.8307 9.81341 15.6441 10.0001 15.4141 10.0001Z" fill="currentColor" stroke="currentColor" stroke-width="0.166667"/>
        <path d="M15.4141 12.5001H12.0807C11.8507 12.5001 11.6641 12.3134 11.6641 12.0834C11.6641 11.8534 11.8507 11.6667 12.0807 11.6667H15.4141C15.6441 11.6667 15.8307 11.8534 15.8307 12.0834C15.8307 12.3134 15.6441 12.5001 15.4141 12.5001Z" fill="currentColor" stroke="currentColor" stroke-width="0.166667"/>
        <path d="M15.4141 15.0001H4.58073C4.35073 15.0001 4.16406 14.8134 4.16406 14.5834C4.16406 14.3534 4.35073 14.1667 4.58073 14.1667H15.4141C15.6441 14.1667 15.8307 14.3534 15.8307 14.5834C15.8307 14.8134 15.6441 15.0001 15.4141 15.0001Z" fill="currentColor" stroke="currentColor" stroke-width="0.166667"/>
        <path d="M15.4141 17.5001H4.58073C4.35073 17.5001 4.16406 17.3134 4.16406 17.0834C4.16406 16.8534 4.35073 16.6667 4.58073 16.6667H15.4141C15.6441 16.6667 15.8307 16.8534 15.8307 17.0834C15.8307 17.3134 15.6441 17.5001 15.4141 17.5001Z" fill="currentColor" stroke="currentColor" stroke-width="0.166667"/>
    </g>
    <defs>
        <clipPath id="clip0_2242_143314">
            <rect width="20" height="20" fill="white"/>
        </clipPath>
    </defs>
</svg>
