<svg width="72" height="72" viewBox="0 0 72 72" fill="none" xmlns="http://www.w3.org/2000/svg">
<rect width="72" height="72" rx="36" fill="#0B7D46" fill-opacity="0.4"/>
<path d="M36 13.25C31.5005 13.25 27.102 14.5843 23.3608 17.0841C19.6196 19.5839 16.7036 23.1369 14.9818 27.294C13.2599 31.451 12.8093 36.0252 13.6871 40.4383C14.565 44.8514 16.7317 48.905 19.9133 52.0867C23.095 55.2683 27.1486 57.4351 31.5617 58.3129C35.9748 59.1907 40.549 58.7402 44.7061 57.0183C48.8631 55.2964 52.4161 52.3804 54.916 48.6392C57.4158 44.898 58.75 40.4995 58.75 36C58.743 29.9685 56.3439 24.186 52.079 19.921C47.8141 15.6561 42.0315 13.257 36 13.25ZM46.835 32.0164L34.0005 44.2664C33.6742 44.5768 33.241 44.75 32.7905 44.75C32.3401 44.75 31.9069 44.5768 31.5806 44.2664L25.1651 38.1414C24.8299 37.8203 24.6358 37.3793 24.6256 36.9153C24.6153 36.4513 24.7896 36.0022 25.1103 35.6666C25.4309 35.331 25.8716 35.1364 26.3356 35.1255C26.7996 35.1147 27.249 35.2884 27.585 35.6086L32.7905 40.5801L44.4151 29.4836C44.751 29.1634 45.2004 28.9897 45.6644 29.0005C46.1284 29.0114 46.5691 29.206 46.8898 29.5416C47.2104 29.8772 47.3847 30.3263 47.3745 30.7903C47.3642 31.2543 47.1701 31.6953 46.835 32.0164Z" fill="#39C682"/>
</svg>
