<svg width="20" height="22" viewBox="0 0 20 22" fill="none" xmlns="http://www.w3.org/2000/svg">
    <path d="M17.0519 10.1454V5.10125C17.0519 3.90241 16.0701 2.91222 14.8712 2.91222H14.5996V2.57029C14.5996 1.71493 13.9062 1.02151 13.0508 1.02151C12.1955 1.02151 11.5021 1.71493 11.5021 2.57029V2.91222H5.82322V2.57029C5.82322 1.70306 5.12016 1 4.25293 1C3.3857 1 2.68265 1.70306 2.68265 2.57029V2.91222H2.44796C1.24908 2.91222 0.273438 3.90241 0.273438 5.10125V16.6837C0.273438 17.8826 1.24908 18.8732 2.44796 18.8732H9.27093C10.3958 20.2188 12.0585 20.9974 13.8123 21C17.0691 21 19.722 18.3466 19.722 15.0897C19.7221 13.0255 18.6437 11.2017 17.0519 10.1454ZM12.3625 2.57029C12.3559 2.19557 12.6542 1.88642 13.0289 1.87979C13.035 1.87971 13.041 1.87966 13.047 1.87971C13.4253 1.8757 13.7352 2.17909 13.7392 2.55738C13.7392 2.56168 13.7392 2.56599 13.7392 2.57029V4.24589H12.3625V2.57029ZM3.54308 2.57029C3.54716 2.18477 3.86303 1.87558 4.24855 1.87966C4.24923 1.87966 4.24988 1.87966 4.25052 1.87971C4.63746 1.87971 4.96279 2.18339 4.96279 2.57029V4.24589H3.54308V2.57029ZM1.13387 5.10125C1.13387 4.37681 1.72352 3.77265 2.44796 3.77265H2.68265V4.694C2.68265 4.93157 2.88106 5.10632 3.11867 5.10632H5.38247C5.62003 5.10632 5.82322 4.93157 5.82322 4.694V3.77265H11.5021V4.694C11.4957 4.91535 11.67 5.09996 11.8913 5.10632C11.8992 5.10654 11.9072 5.10654 11.9151 5.10632H14.1789C14.4037 5.11381 14.592 4.93764 14.5995 4.71285C14.5997 4.70657 14.5997 4.70029 14.5996 4.694V3.77265H14.8712C15.6006 3.78001 16.1887 4.3719 16.1914 5.10125V6.48301H1.13387V5.10125ZM2.44796 18.0128C1.72352 18.0128 1.13387 17.4081 1.13387 16.6837V7.34345H16.1914V9.67754C15.4425 9.34872 14.6335 9.17913 13.8156 9.17943C10.5589 9.17943 7.90757 11.8367 7.90757 15.0936C7.90594 16.1167 8.17039 17.1227 8.67504 18.0128H2.44796ZM13.8123 20.1319C11.0255 20.1319 8.76628 17.8727 8.76628 15.0859C8.76628 12.299 11.0255 10.0398 13.8123 10.0398C16.5992 10.0398 18.8584 12.299 18.8584 15.0859V15.0859C18.8552 17.8714 16.5979 20.1288 13.8123 20.1319Z" fill="#929AB5" stroke="#929AB5" stroke-width="0.25"/>
    <path d="M15.839 15.0874H13.9542V12.4988C13.9542 12.2612 13.7616 12.0686 13.524 12.0686C13.2864 12.0686 13.0938 12.2612 13.0938 12.4988V15.5172C13.0975 15.7565 13.2928 15.9483 13.5321 15.9479H15.839C16.0766 15.9479 16.2692 15.7553 16.2692 15.5176C16.2692 15.28 16.0766 15.0874 15.839 15.0874Z" fill="#929AB5" stroke="#929AB5" stroke-width="0.25"/>
</svg>
