<svg width="72" height="72" viewBox="0 0 72 72" fill="none" xmlns="http://www.w3.org/2000/svg">
<rect width="72" height="72" rx="36" fill="#9B7B08" fill-opacity="0.4"/>
<path d="M59.7911 49.1182L40.5479 15.8682C40.0863 15.0719 39.4235 14.4109 38.626 13.9514C37.8284 13.4919 36.9242 13.25 36.0037 13.25C35.0833 13.25 34.179 13.4919 33.3815 13.9514C32.584 14.4109 31.9212 15.0719 31.4596 15.8682V15.8699L12.2164 49.1182C11.7544 49.9161 11.5107 50.8216 11.5098 51.7436C11.5089 52.6656 11.7508 53.5716 12.2113 54.3704C12.6718 55.1692 13.3345 55.8326 14.1328 56.294C14.9311 56.7553 15.8369 56.9982 16.7589 56.9983H55.2486C56.1706 56.9982 57.0764 56.7553 57.8747 56.294C58.673 55.8326 59.3357 55.1692 59.7962 54.3704C60.2567 53.5716 60.4986 52.6656 60.4977 51.7436C60.4968 50.8216 60.2531 49.9161 59.7911 49.1182ZM34.252 30.75C34.252 30.2859 34.4364 29.8407 34.7646 29.5126C35.0928 29.1844 35.5379 29 36.002 29C36.4662 29 36.9113 29.1844 37.2395 29.5126C37.5677 29.8407 37.752 30.2859 37.752 30.75V39.5C37.752 39.9641 37.5677 40.4092 37.2395 40.7374C36.9113 41.0656 36.4662 41.25 36.002 41.25C35.5379 41.25 35.0928 41.0656 34.7646 40.7374C34.4364 40.4092 34.252 39.9641 34.252 39.5V30.75ZM36.0033 50.0006C35.4841 50.0006 34.9766 49.8467 34.5449 49.5582C34.1133 49.2698 33.7768 48.8598 33.5781 48.3802C33.3794 47.9005 33.3275 47.3727 33.4288 46.8635C33.53 46.3543 33.78 45.8866 34.1472 45.5195C34.5143 45.1524 34.982 44.9024 35.4912 44.8011C36.0004 44.6998 36.5282 44.7518 37.0079 44.9504C37.4875 45.1491 37.8975 45.4856 38.1859 45.9173C38.4744 46.3489 38.6283 46.8565 38.6283 47.3756C38.6283 48.0718 38.3517 48.7395 37.8594 49.2318C37.3672 49.724 36.6995 50.0006 36.0033 50.0006Z" fill="#EDC535"/>
</svg>
