<?xml version="1.0" encoding="UTF-8"?>
<!DOCTYPE svg PUBLIC "-//W3C//DTD SVG 1.1//EN" "http://www.w3.org/Graphics/SVG/1.1/DTD/svg11.dtd">
<!-- Creator: CorelDRAW 2021 (64-Bit) -->
<svg xmlns="http://www.w3.org/2000/svg" xml:space="preserve" width="380.192mm" height="96.9667mm" version="1.1" style="shape-rendering:geometricPrecision; text-rendering:geometricPrecision; image-rendering:optimizeQuality; fill-rule:evenodd; clip-rule:evenodd"
viewBox="0 0 2291.21 584.37"
 xmlns:xlink="http://www.w3.org/1999/xlink"
 xmlns:xodm="http://www.corel.com/coreldraw/odm/2003">
 <defs>
  <style type="text/css">
   <![CDATA[
    .fil0 {fill:#0C143D;fill-rule:nonzero}
    .fil1 {fill:url(#id0)}
   ]]>
  </style>
  <linearGradient id="id0" gradientUnits="userSpaceOnUse" x1="455.08" y1="92.32" x2="455.08" y2="451.25">
   <stop offset="0" style="stop-opacity:1; stop-color:#70A9FF"/>
   <stop offset="1" style="stop-opacity:1; stop-color:#004DC9"/>
  </linearGradient>
 </defs>
 <g id="Layer_x0020_1">
  <metadata id="CorelCorpID_0Corel-Layer"/>
  <path class="fil0" d="M975.15 417.12c35.34,0 59.85,-13.68 75.82,-31.92l0 27.36 54.72 0 0 -149.35c0,-74.67 -34.2,-115.14 -108.31,-115.14 -43.33,0 -83.8,21.66 -107.74,41.04l26.22 43.89c11.97,-9.69 45.03,-30.21 76.96,-30.21 44.46,0 56.43,19.38 58.14,52.44l-41.04 0c-53.01,0 -129.97,11.97 -129.97,83.22 0,47.32 42.18,78.67 95.2,78.67zm-39.91 -78.67c0,-25.65 23.38,-38.19 70.12,-38.19l45.61 0 0 24.51c-4.57,19.96 -26.22,46.75 -66.7,46.75 -26.22,0 -49.03,-12.54 -49.03,-33.06zm312.18 197.24c78.67,0 139.09,-52.44 139.09,-134.53l0 -248.54 -54.72 0 0 38.2c-21.67,-25.09 -53.01,-42.75 -88.93,-42.75 -74.68,0 -130.54,60.42 -130.54,134.53 0,74.67 55.86,134.53 130.54,134.53 35.91,0 67.26,-17.1 88.93,-42.18l0 26.22c0,37.62 -26.8,79.23 -84.37,79.23 -46.75,0 -73.54,-21.09 -82.09,-32.49l-44.46 30.22c18.24,27.36 59.85,57.57 126.55,57.57zm-75.82 -253.1c0,-43.89 35.91,-79.8 80.38,-79.8 43.9,0 79.81,35.91 79.81,79.8 0,44.46 -35.91,79.8 -79.81,79.8 -44.46,0 -80.38,-35.34 -80.38,-79.8zm244.35 129.97l54.72 0 0 -107.17c0,-58.72 27.36,-102.61 79.23,-102.61 45.04,0 73.54,33.63 73.54,83.22l0 126.55 54.73 0 0 -131.11c0,-75.25 -34.78,-133.39 -114.01,-133.39 -41.62,0 -73.54,21.09 -93.49,53.01l0 -48.46 -54.72 0 0 259.94zm408.52 4.56c76.39,0 139.09,-59.85 139.09,-134.53 0,-74.11 -62.7,-134.53 -139.09,-134.53 -76.38,0 -139.66,60.42 -139.66,134.53 0,74.67 63.27,134.53 139.66,134.53zm-80.38 -134.53c0,-43.89 35.91,-79.8 80.38,-79.8 43.9,0 79.81,35.91 79.81,79.8 0,44.46 -35.91,79.8 -79.81,79.8 -44.46,0 -80.38,-35.34 -80.38,-79.8zm309.33 134.53c53.01,0 100.9,-25.65 100.9,-81.51 0,-58.14 -54.72,-70.69 -87.22,-81.51 -37.05,-12.54 -49.59,-18.25 -49.59,-31.93 0,-20.52 22.8,-25.08 36.49,-25.08 30.21,0 49.02,18.81 54.72,25.08l35.34 -31.92c-16.53,-21.09 -48.46,-42.18 -92.35,-42.18 -47.31,0 -89.5,27.36 -89.5,77.52 0,54.72 54.72,69.55 87.79,80.38 36.49,11.97 49.02,15.96 49.02,31.93 0,22.23 -23.37,29.64 -41.04,29.64 -37.62,0 -60.42,-22.23 -65.55,-31.35l-45.04 27.36c12.54,26.22 53.59,53.58 106.03,53.58zm204.15 -1.71c6.84,0 18.81,-0.57 25.09,-1.14l0 -52.44c-45.61,5.13 -61.56,-9.12 -61.56,-40.48l0 -114.01 70.12 0 0 -54.72 -70.12 0 0 -76.39 -54.72 0 0 76.39 0 0 0 54.72 0 0 0 114.01c0,58.71 23.94,94.06 91.2,94.06z"/>
  <path class="fil1" d="M482.94 244.34c-4.46,4.35 -10.55,7.02 -17.26,7.02 -13.67,0 -24.74,-11.08 -24.74,-24.75 0,-7.98 3.77,-15.07 9.63,-19.59 23.25,-18.33 49.48,-32.03 77.41,-40.63 -6.68,-9.4 -14.23,-18.36 -20.99,-25.27 -30.73,-31.4 -68.73,-48.81 -113.03,-48.81 -43.86,0 -81.58,17.06 -112.21,47.99 -7.1,7.17 -14.9,16.38 -21.77,26.05 34.62,10.6 66.63,29.06 93.44,54.53l105.03 99.77 140.54 124.07c5.58,4.26 12.3,6.53 19.34,6.53 17.61,0 31.88,-14.26 31.88,-31.88 0,-5.06 -1.17,-9.99 -3.47,-14.49l-94.62 -194.02c-25.01,6.26 -48.51,17.59 -69.16,33.47zm-323.88 -86.32l10.7 -21.66 0.63 -1.1c11.9,-20.89 27.78,-41.54 44.57,-58.7 48.15,-49.2 109.92,-76.56 179.01,-76.56 69.09,0 130.86,27.35 179.01,76.56 16.79,17.16 32.66,37.81 44.56,58.7l0.63 1.1 10.7 21.66 -0.05 -0.01c-1.95,-0.24 -3.9,-0.47 -5.85,-0.67l-0.08 -0.01 -0.11 -0.01c-1.88,-0.19 -3.77,-0.36 -5.66,-0.5l-0.27 -0.02 -0.21 -0.02c-3.95,-0.3 -7.92,-0.5 -11.93,-0.6l-0.09 -0c-2.05,-0.05 -4.1,-0.08 -6.17,-0.08l-0.29 0 -0.29 0 -0.28 0 -0.29 0 -0.29 0 -0 0 -0.28 0 -0.29 0 -0.28 0 -0 0 -0.28 0 -0 0 -0.28 0 -0 0 -0.28 0.01 -0.28 0 -0 0 -0.28 0 -0.28 0.01 -0 0 -0.28 0 -0 0 -0.28 0.01 -0.28 0 -0 0 -0.28 0.01 -0 0 -0.28 0.01 -0 0 -0.28 0.01 -0 0 -0.28 0.01 -0.01 0 -0.28 0.01 -0 0 -0.28 0.01 -0.01 0 -0.28 0.01 -0 0 -0.28 0.01 -0 0 -0.28 0.01 -0.01 0 -0.28 0.01 -0 0 -0.28 0.01 -0.01 0 -0.28 0.01 -0 0 -0.28 0.01 -0.01 0 -0.28 0.01 -0.01 0 -0.28 0.01 -0.01 0 -0.28 0.01 -0.01 0 -0.28 0.01 -0 0 -0.28 0.01 -0.01 0 -0.28 0.01 -0.01 0 -0.28 0.01 -0 0 -0.28 0.01 -0.01 0 -0.28 0.01 -0.01 0 -0.28 0.01 -0.01 0 -0.28 0.01 -0.01 0 -0.28 0.02 -0.01 0 -0.28 0.01 -0.01 0 -0.28 0.01 -0.01 0 -0.27 0.02 -0.01 0 -0.27 0.01 -0.01 0 -0.27 0.02 -0.01 0 -0.27 0.02 -0.01 0 -0.27 0.02 -0.01 0 -0.27 0.02 -0.01 0 -0.27 0.02 -0.01 0 -0.27 0.02 -0.01 0 -0.27 0.02 -0.01 0 -0.27 0.02 -0.01 0 -0.27 0.02 -0.01 0 -0.27 0.02 -0.01 0 -0.27 0.02 -0.01 0 -0.27 0.02 -0.02 0 -0.27 0.02 -0.01 0 -0.27 0.02 -0.01 0 -0.27 0.02 -0.02 0 -0.27 0.02 -0.02 0 -0.27 0.02 -0.01 0 -0.27 0.02 -0.12 -0.25c-10.29,-18.06 -24.66,-36.34 -37.94,-49.91 -40.01,-40.89 -90.69,-63.64 -148.29,-63.64 -57.59,0 -108.27,22.75 -148.29,63.64 -13.28,13.57 -27.65,31.85 -37.93,49.91l-0.12 0.25 -0.27 -0.02 -0.02 0 -0.27 -0.02 -0.01 0 -0.27 -0.02 -0.01 0 -0.27 -0.02 -0.01 0 -0.27 -0.02 -0.01 0 -0.27 -0.02 -0.02 0 -0.27 -0.02 -0.02 0 -0.27 -0.02 -0.01 0 -0.27 -0.02 -0.01 0 -0.27 -0.02 -0.01 0 -0.27 -0.02 -0.01 0 -0.27 -0.02 -0.01 0 -0.27 -0.02 -0.01 0 -0.27 -0.02 -0.01 0 -0.27 -0.02 -0.01 0 -0.27 -0.02 -0.01 0 -0.28 -0.01 -0.01 0 -0.28 -0.02 -0.01 0 -0.27 -0.02 -0.01 0 -0.28 -0.02 -0.01 0 -0.28 -0.01 -0.01 0 -0.27 -0.02 -0.01 0 -0.28 -0.01 -0.01 0 -0.28 -0.01 -0.01 0 -0.27 -0.01 -0.01 0 -0.28 -0.02 -0.01 0 -0.28 -0.01 -0.01 0 -0.28 -0.01 -0.01 0 -0.28 -0.01 -0.01 0 -0.28 -0.01 -0.01 0 -0.28 -0.01 -0.01 0 -0.28 -0.01 -0.01 0 -0.28 -0.01 -0.01 0 -0.28 -0.01 -0.01 0 -0.28 -0.01 -0.01 0 -0.28 -0.01 -0.01 0 -0.28 -0.01 -0 0 -0.28 -0.01 -0 0 -0.28 -0.01 -0.01 0 -0.28 -0.01 -0 0 -0.28 -0.01 -0 0 -0.28 -0.01 -0.01 0 -0.28 -0.01 -0.01 0 -0.28 -0.01 -0.01 0 -0.28 -0.01 -0 0 -0.28 -0.01 -0 0 -0.28 -0.01 -0.28 -0 -0 0 -0.28 -0.01 -0 0 -0.28 -0 -0.28 -0.01 -0 0 -0.28 -0 -0 0 -0.28 -0 -0 0 -0.28 -0.01 -0.29 0 -0.28 -0 -0.29 -0 -0.29 -0 -0.29 0 -0.29 -0 -0.28 0 -0 0 -0.29 -0 -0.29 0 -0.28 0c-2.06,0 -4.12,0.03 -6.17,0.08l-0.09 0c-6.08,0.16 -12.1,0.54 -18.06,1.14l-0.12 0.01c-2,0.21 -3.99,0.43 -5.97,0.68zm149.02 186.23c13.67,0 24.74,11.08 24.74,24.74 0,7 -2.9,13.31 -7.57,17.81l0 0 -0.03 0.03c-0.3,0.28 -0.6,0.56 -0.91,0.83l-103.76 94.97 -0.51 0.41c-14.38,11.4 -32.08,17.55 -50.43,17.55 -44.84,0 -81.21,-36.37 -81.21,-81.21 0,-12.87 3.03,-25.52 8.78,-36.77l86.47 -177.33c-101.96,3.14 -183.65,86.77 -183.65,189.49 0,104.71 84.87,189.59 189.59,189.59l408.73 0c104.72,0 189.59,-84.87 189.59,-189.59 0,-102.72 -81.69,-186.35 -183.65,-189.49l86.47 177.33c5.76,11.25 8.79,23.89 8.79,36.77 0,44.84 -36.36,81.21 -81.21,81.21 -18.35,0 -36.05,-6.15 -50.43,-17.55l-0.51 -0.41 -142.26 -125.58 -56.69 -53.86 -48.98 -46.54c-23.7,-22.51 -52.51,-38.07 -83.61,-45.81l-94.63 194.05c-2.31,4.5 -3.47,9.44 -3.47,14.49 0,17.61 14.26,31.88 31.87,31.88 7.04,0 13.77,-2.27 19.34,-6.53l100.39 -91.87c4.54,-5.26 11.25,-8.6 18.75,-8.6z"/>
 </g>
</svg>
