<?xml version="1.0" standalone="no"?>
<!DOCTYPE svg PUBLIC "-//W3C//DTD SVG 20010904//EN"
 "http://www.w3.org/TR/2001/REC-SVG-20010904/DTD/svg10.dtd">
<svg version="1.0" xmlns="http://www.w3.org/2000/svg"
 width="1106.000000pt" height="1106.000000pt" viewBox="0 0 1106.000000 1106.000000"
 preserveAspectRatio="xMidYMid meet">
<metadata>
Created by potrace 1.14, written by Peter Selinger 2001-2017
</metadata>
<g transform="translate(0.000000,1106.000000) scale(0.100000,-0.100000)"
fill="#000000" stroke="none">
<path d="M5298 9625 c-1 -2 -41 -6 -88 -9 -301 -23 -652 -106 -943 -222 -198
-79 -290 -124 -482 -233 -444 -255 -896 -682 -1226 -1161 -69 -99 -182 -287
-216 -360 -17 -36 -50 -103 -72 -149 -27 -53 -36 -81 -27 -78 33 13 214 22
439 22 130 0 237 4 237 8 0 10 120 195 183 282 49 66 205 262 237 296 98 104
140 146 211 214 343 325 781 574 1214 691 87 23 217 52 267 59 24 4 57 8 73
11 142 21 250 28 435 28 524 -1 990 -129 1439 -393 119 -71 304 -202 395 -281
196 -170 345 -327 490 -515 43 -55 83 -107 90 -115 14 -18 134 -200 164 -249
l20 -35 259 -2 c250 -2 375 -8 394 -20 34 -20 17 29 -64 189 -83 164 -210 377
-229 385 -5 2 -8 8 -8 13 0 6 -13 27 -28 47 -16 20 -50 66 -77 102 -138 184
-399 469 -545 595 -459 398 -938 651 -1482 784 -90 22 -179 42 -198 45 -95 15
-250 36 -295 42 -54 6 -561 14 -567 9z"/>
<path d="M5457 8334 c-1 -1 -47 -4 -102 -7 -178 -11 -395 -56 -560 -118 -44
-17 -84 -31 -90 -33 -25 -6 -229 -109 -282 -142 -80 -50 -167 -108 -173 -115
-3 -3 -27 -22 -55 -43 -107 -81 -237 -203 -335 -315 -30 -35 -64 -73 -75 -85
-35 -38 -138 -176 -134 -179 2 -2 36 -13 74 -26 187 -63 424 -169 590 -263 69
-40 255 -158 265 -168 3 -3 30 -23 60 -44 110 -78 222 -174 414 -357 50 -48
111 -106 136 -129 25 -23 115 -109 200 -190 197 -188 226 -215 405 -385 81
-77 171 -162 200 -190 28 -27 123 -117 210 -200 87 -82 177 -168 200 -190 37
-35 101 -93 185 -165 14 -12 54 -47 89 -78 35 -31 72 -64 81 -72 9 -8 46 -41
81 -72 35 -31 75 -66 88 -77 14 -12 52 -46 85 -76 34 -29 70 -62 82 -72 26
-23 149 -131 178 -158 23 -20 122 -107 162 -142 12 -10 54 -47 94 -83 82 -73
83 -74 171 -150 35 -30 70 -62 79 -70 9 -8 51 -46 95 -85 44 -38 95 -84 115
-101 19 -17 80 -71 135 -120 56 -49 134 -118 174 -154 41 -36 85 -75 99 -87
36 -30 121 -70 178 -83 43 -10 69 -11 152 -9 9 1 38 7 63 14 197 56 336 241
328 439 -4 113 3 95 -274 661 -70 143 -158 323 -195 400 -37 77 -126 259 -197
405 -72 146 -162 330 -201 410 -38 80 -135 278 -214 440 -79 162 -177 363
-218 447 l-73 152 -31 -6 c-57 -11 -265 -82 -361 -123 -207 -88 -394 -198
-583 -342 -80 -61 -95 -69 -160 -84 -172 -40 -340 50 -404 218 -23 60 -27 152
-9 214 21 78 76 144 184 225 285 214 603 383 917 489 52 18 97 33 99 35 18 19
-289 368 -439 499 -109 95 -386 286 -416 286 -4 0 -15 6 -23 13 -54 45 -403
173 -525 192 -17 3 -51 9 -76 15 -47 10 -99 17 -191 26 -55 5 -267 12 -272 8z"/>
<path d="M2457 6744 c-1 -1 -36 -5 -77 -8 -41 -4 -82 -9 -90 -11 -8 -2 -33 -6
-55 -9 -117 -14 -313 -64 -482 -125 -130 -46 -434 -192 -488 -234 -5 -4 -57
-40 -115 -79 -203 -138 -423 -341 -560 -518 -19 -24 -41 -51 -48 -58 -34 -37
-188 -280 -241 -382 -95 -181 -210 -492 -234 -635 -3 -16 -12 -66 -21 -110
-35 -186 -41 -253 -41 -485 0 -277 12 -380 77 -655 11 -49 25 -96 31 -102 5
-7 7 -13 4 -13 -7 0 28 -101 74 -217 179 -453 497 -864 889 -1151 47 -34 90
-66 96 -71 24 -19 213 -130 272 -160 238 -120 577 -231 782 -256 25 -3 52 -7
60 -10 8 -2 47 -7 85 -12 90 -10 6174 -11 6280 0 123 12 177 20 275 42 14 3
37 7 52 10 14 3 86 22 160 44 428 124 811 352 1133 675 240 241 412 492 555
811 44 96 124 325 134 380 2 11 11 49 19 85 26 108 40 189 52 305 3 33 8 78
11 100 5 46 5 343 0 395 -13 124 -19 177 -22 195 -3 11 -7 36 -10 55 -12 81
-64 291 -95 385 -134 401 -348 746 -648 1045 -254 253 -471 402 -825 565 -121
55 -368 131 -556 170 -13 3 -108 17 -208 31 -54 7 -202 15 -202 10 0 -2 55
-116 121 -253 120 -246 220 -451 399 -818 51 -104 138 -282 193 -395 55 -113
141 -290 192 -395 51 -104 143 -293 204 -418 153 -315 158 -325 192 -452 31
-114 36 -374 9 -495 -106 -488 -483 -838 -977 -906 -72 -10 -240 -7 -314 5
-107 18 -237 59 -323 103 -130 65 -178 100 -360 262 -38 33 -78 69 -90 79 -12
10 -35 31 -51 45 -17 15 -63 56 -104 92 -41 36 -82 72 -91 80 -8 8 -44 40 -79
70 -35 30 -73 64 -85 75 -12 11 -53 47 -91 80 -37 33 -73 65 -79 70 -6 6 -49
44 -96 85 -47 41 -90 80 -96 85 -6 6 -42 37 -79 70 -38 33 -73 65 -79 70 -6 6
-47 42 -91 80 -44 39 -82 72 -85 75 -3 3 -61 55 -130 115 -69 60 -130 114
-136 120 -6 5 -39 35 -74 65 -35 30 -71 62 -80 70 -9 8 -52 47 -95 85 -121
106 -143 126 -194 175 -26 25 -119 113 -206 195 -86 83 -176 168 -200 190 -23
22 -120 114 -215 205 -96 91 -190 181 -210 200 -20 19 -106 100 -190 180 -85
80 -177 168 -205 195 -230 222 -357 335 -462 408 -29 20 -75 53 -103 72 -27
19 -54 35 -60 35 -5 0 -10 3 -10 8 0 4 -10 12 -23 18 -12 7 -74 39 -137 73
-127 67 -284 133 -430 179 -164 52 -148 56 -202 -56 -51 -106 -194 -401 -338
-697 -51 -104 -132 -271 -180 -370 -48 -99 -147 -301 -220 -450 -73 -148 -163
-333 -200 -410 -37 -77 -124 -255 -193 -396 -195 -400 -198 -406 -192 -517 6
-113 22 -163 81 -245 69 -96 166 -159 281 -182 108 -22 276 18 351 83 33 29
190 172 231 211 20 18 72 65 115 105 44 39 91 82 105 96 14 14 73 68 131 120
58 52 114 104 125 115 12 11 63 58 115 105 52 47 104 94 116 105 11 11 65 61
119 110 54 50 126 115 159 146 34 31 85 78 115 105 30 27 68 63 85 79 60 58
102 83 173 101 164 41 320 -31 395 -184 30 -60 33 -75 33 -152 -1 -72 -5 -94
-28 -142 -15 -31 -45 -73 -65 -95 -34 -33 -204 -191 -252 -233 -9 -8 -60 -54
-111 -102 -52 -47 -104 -95 -115 -105 -12 -10 -68 -61 -124 -113 -56 -52 -110
-102 -120 -110 -9 -8 -61 -55 -114 -104 -53 -49 -105 -96 -115 -105 -10 -9
-63 -57 -117 -108 -54 -50 -108 -100 -120 -110 -12 -10 -66 -59 -120 -109 -54
-51 -117 -108 -139 -128 -150 -138 -393 -247 -602 -272 -74 -8 -225 -9 -283 0
-319 47 -564 188 -766 441 -102 127 -184 317 -219 505 -13 71 -13 295 1 375
29 164 37 184 319 760 70 143 155 319 190 390 34 72 122 252 195 400 73 149
161 329 195 400 34 72 127 261 205 420 148 302 210 432 210 440 0 4 -108 3
-113 -1z"/>
</g>
</svg>
